<svg xmlns="http://www.w3.org/2000/svg" viewBox="1531.0 920.0 1314.1 142.7" preserveAspectRatio="none"><path fill-rule="evenodd" d="M 2016.570312 924 L 2012.300781 924 C 1961.019531 924.21875 1918.351562 925.691406 1884.238281 928.390625 C 1837.621094 932.050781 1796.949219 936.699219 1762.230469 942.328125 C 1703.320312 945.460938 1673.140625 947.53125 1671.699219 948.539062 C 1665.5 948.929688 1662.730469 953.289062 1663.480469 961.621094 C 1599.789062 978.339844 1556.96875 996.300781 1535 1015.519531 L 1619.96875 990.75 C 1638.238281 985.890625 1659.5 981.289062 1683.78125 976.960938 C 1688.011719 977.308594 1694.578125 977.609375 1703.46875 977.890625 L 1695.988281 980.96875 C 1682.761719 980.109375 1677.671875 980.121094 1680.691406 981 L 1672.921875 1000.324219 C 1673.160156 1002.558594 1676.929688 1003.757812 1684.230469 1003.914062 C 1690.128906 1004.332031 1698.839844 1004.46875 1710.359375 1004.324219 C 1824.039062 1002.511719 1888.851562 1001.621094 1904.820312 1001.679688 C 1932.179688 1001.464844 1956 1001.542969 1976.261719 1001.894531 C 2032.070312 1002.996094 2110.738281 1006.808594 2212.308594 1013.355469 C 2102.238281 1010.339844 2010.328125 1010.523438 1936.601562 1013.898438 C 1826.121094 1019.332031 1735.460938 1027.621094 1664.609375 1038.757812 L 1685.089844 1037.644531 C 1714.429688 1038.746094 1747.050781 1039.128906 1782.941406 1038.816406 C 1934.371094 1034.992188 2016.761719 1033.207031 2030.101562 1033.488281 C 2069.359375 1033.238281 2118.191406 1033.675781 2176.601562 1034.816406 C 2243.789062 1035.957031 2316.308594 1038.757812 2394.140625 1043.203125 L 2463.5 1047.035156 C 2570.179688 1055.109375 2621.800781 1058.726562 2618.390625 1057.878906 C 2651.53125 1054.777344 2656.070312 1046.800781 2631.988281 1033.921875 C 2613.460938 1029.921875 2544.160156 1021.390625 2424.109375 1008.320312 C 2337.320312 998.871094 2234.621094 990.898438 2115.96875 984.441406 C 2033.859375 979.339844 1954.550781 977.398438 1878.03125 978.621094 C 1935.558594 974.941406 2008.570312 972.960938 2097.039062 972.648438 C 2204.039062 974.160156 2311.839844 977.238281 2420.449219 981.921875 C 2429.320312 981 2487.328125 991.550781 2594.5 1013.566406 C 2604.429688 1014.824219 2611.699219 1014.835938 2616.300781 1013.597656 C 2620.429688 1012.367188 2622.789062 1010.585938 2623.410156 1008.273438 C 2627.71875 1008.175781 2630.988281 1007.628906 2633.210938 1006.644531 L 2633.421875 1004.5 C 2715.449219 1016.386719 2762.921875 1022.070312 2775.839844 1021.5625 L 2812.570312 1028.195312 C 2816.898438 1028.964844 2820.761719 1029.433594 2824.148438 1029.601562 C 2832.089844 1030.292969 2837.699219 1027.707031 2841 1021.828125 C 2841.101562 1019.671875 2838.289062 1017.480469 2832.601562 1015.253906 C 2836.449219 1014.183594 2838.25 1012.757812 2837.960938 1010.964844 C 2836.570312 1009.511719 2832.851562 1008.15625 2826.828125 1006.90625 C 2781.761719 997.589844 2715.28125 986.988281 2627.398438 975.140625 C 2598.78125 971.128906 2547.191406 966.53125 2472.628906 961.320312 C 2451.179688 957.988281 2429.628906 955.101562 2407.988281 952.648438 L 2270.808594 937.828125 C 2183.058594 928.710938 2098.308594 924.109375 2016.570312 924 " fill="#000"/></svg>