<svg xmlns="http://www.w3.org/2000/svg" viewBox="1597.0 1253.0 1206.3 190.3" preserveAspectRatio="none"><path fill-rule="evenodd" d="M 1601 1328.359375 C 1610.710938 1360.710938 1639.609375 1420.371094 1641.75 1423.671875 C 1643.878906 1426.972656 1646.070312 1429.675781 1648.550781 1432.007812 C 1651.03125 1434.339844 1653.890625 1436.234375 1657.191406 1437.496094 C 1660.488281 1438.765625 1664.070312 1439.222656 1668.398438 1438.898438 C 1672.738281 1438.570312 1677.21875 1437.425781 1681.859375 1435.582031 C 1686.488281 1433.734375 1691.359375 1431.257812 1696.558594 1428.171875 C 1701.761719 1425.078125 1708.121094 1420.78125 1731.71875 1400.710938 C 1755.328125 1380.636719 1774.5 1364.402344 1789.371094 1351.996094 C 1804.238281 1339.578125 1814.71875 1331.003906 1820.460938 1326.671875 C 1826.21875 1322.347656 1825.140625 1322.890625 1824.441406 1323 C 1823.738281 1323.105469 1822.109375 1322.804688 1819.828125 1321.28125 C 1817.539062 1319.769531 1816.171875 1317.621094 1815.859375 1316.558594 C 1815.539062 1315.484375 1815.5 1316.535156 1815.28125 1318.292969 C 1815.058594 1320.03125 1813.949219 1324.601562 1811.890625 1331.648438 C 1809.839844 1338.6875 1806.839844 1348.011719 1802.929688 1359.539062 C 1799.019531 1371.070312 1794.140625 1385.148438 1793.789062 1389.578125 C 1793.429688 1394.003906 1794.25 1397.847656 1797.089844 1402.035156 C 1799.929688 1406.226562 1804.679688 1408.929688 1808.960938 1409.457031 C 1813.25 1409.964844 1815.210938 1409.652344 1817.800781 1409.164062 C 1820.371094 1408.6875 1823.328125 1407.785156 1826.230469 1406.597656 C 1829.140625 1405.414062 1832.039062 1403.949219 1835 1402.242188 C 1837.96875 1400.542969 1841.160156 1398.472656 1864.351562 1382.601562 C 1887.53125 1366.726562 1906.628906 1353.800781 1921.691406 1343.910156 C 1936.75 1334.023438 1947.679688 1327.148438 1954.089844 1323.527344 C 1960.511719 1319.90625 1961 1319.75 1961.738281 1319.730469 C 1962.488281 1319.710938 1962.839844 1319.730469 1962.179688 1319.484375 C 1961.519531 1319.25 1960.179688 1318.363281 1959.101562 1316.964844 C 1958.03125 1315.570312 1958.78125 1317.628906 1958.398438 1315.894531 C 1958.019531 1314.144531 1958 1316.332031 1957.601562 1321.378906 C 1957.199219 1326.4375 1956.390625 1333.847656 1955.148438 1343.480469 C 1953.929688 1353.105469 1952.230469 1365.621094 1953.601562 1371.519531 C 1955 1377.414062 1957.839844 1381.449219 1961.78125 1384.261719 C 1965.738281 1387.0625 1969.941406 1388.378906 1973.910156 1388.703125 C 1977.878906 1389.003906 1981.738281 1388.644531 1986 1387.636719 C 1990.25 1386.640625 1994.949219 1385.019531 2000.328125 1382.804688 C 2005.730469 1380.609375 2011.921875 1377.785156 2018.96875 1374.351562 C 2026.039062 1370.914062 2034.53125 1366.558594 2096.421875 1330.847656 C 2158.320312 1295.128906 2162.261719 1292.929688 2165.609375 1291.203125 C 2168.960938 1289.476562 2171.558594 1288.285156 2173.210938 1287.640625 C 2174.859375 1287.003906 2175.179688 1286.90625 2175.371094 1287.035156 C 2175.550781 1287.152344 2179.070312 1286.847656 2180.761719 1286.964844 C 2182.449219 1287.074219 2184.019531 1287.464844 2185.609375 1288.148438 C 2187.21875 1288.832031 2188.890625 1289.90625 2190.769531 1291.496094 C 2192.628906 1293.085938 2228.820312 1328.847656 2261.511719 1326.40625 C 2294.171875 1323.964844 2298.101562 1292.226562 2298.171875 1292.578125 C 2298.25 1292.941406 2298.460938 1292.589844 2298.390625 1292.65625 C 2298.300781 1292.726562 2297.910156 1293 2297.410156 1293.203125 C 2296.921875 1293.417969 2295.089844 1293.546875 2296.769531 1293.847656 C 2298.441406 1294.160156 2301.160156 1294.921875 2304.488281 1296.183594 C 2307.828125 1297.449219 2311.710938 1299.246094 2316.089844 1301.609375 C 2320.46875 1303.964844 2324.691406 1306.480469 2372.410156 1339.878906 C 2420.128906 1373.265625 2428.390625 1376.019531 2431.769531 1376.285156 C 2435.140625 1376.558594 2438.539062 1376.46875 2441.941406 1376.058594 C 2445.328125 1375.640625 2448.710938 1374.917969 2451.699219 1374.019531 C 2454.671875 1373.109375 2456.640625 1372.59375 2460.199219 1370.914062 C 2463.761719 1369.234375 2467.851562 1366.910156 2472.960938 1363.785156 C 2478.078125 1360.664062 2484.289062 1356.652344 2491.320312 1352.015625 C 2498.339844 1347.367188 2498.800781 1347.40625 2500.75 1346.8125 C 2502.699219 1346.214844 2504.109375 1345.894531 2504.851562 1345.796875 C 2505.609375 1345.707031 2505.558594 1345.6875 2502.070312 1343.207031 C 2498.578125 1340.730469 2521.550781 1373.304688 2534.878906 1391.609375 C 2548.199219 1409.925781 2550.761719 1412.160156 2553.601562 1414.035156 C 2556.441406 1415.921875 2559.570312 1417.382812 2562.929688 1418.320312 C 2566.269531 1419.269531 2569.75 1419.621094 2573.289062 1419.425781 C 2576.839844 1419.238281 2580.660156 1418.566406 2584.449219 1417.492188 C 2588.25 1416.40625 2592.011719 1414.933594 2595.789062 1413.109375 C 2599.578125 1411.273438 2603.371094 1409.097656 2644.199219 1380.042969 C 2685.039062 1350.988281 2762.03125 1294.914062 2765.308594 1292.65625 C 2768.589844 1290.394531 2771.488281 1288.597656 2773.988281 1287.316406 C 2776.480469 1286.019531 2778.5 1285.21875 2779.960938 1284.816406 C 2781.398438 1284.410156 2780.398438 1284.078125 2780.058594 1284.007812 C 2779.71875 1283.929688 2779.730469 1283.863281 2779.71875 1283.773438 C 2779.699219 1283.675781 2779.800781 1283.980469 2779.78125 1285.023438 C 2779.761719 1286.058594 2780.03125 1286.300781 2763.828125 1320.285156 C 2747.640625 1354.25 2750.820312 1363.867188 2755.460938 1366.648438 C 2760.101562 1369.429688 2765.589844 1370.105469 2771.609375 1369.089844 C 2777.621094 1368.0625 2784.199219 1365.378906 2789.238281 1362.195312 C 2794.300781 1359.015625 2794.300781 1359.015625 2790.671875 1360.253906 C 2790.671875 1360.253906 2782.601562 1360.085938 2776.691406 1360.421875 C 2770.78125 1360.753906 2766.539062 1360.242188 2763.941406 1359.070312 C 2761.359375 1357.902344 2760.011719 1356.269531 2769.089844 1341.910156 C 2778.160156 1327.53125 2796.96875 1294.992188 2798.078125 1290.628906 C 2799.210938 1286.261719 2799.289062 1282.542969 2798.371094 1278.796875 C 2797.441406 1275.054688 2795.359375 1271.667969 2792.46875 1269.089844 C 2789.578125 1266.492188 2784.558594 1264.277344 2780.121094 1264.464844 C 2775.691406 1264.660156 2772.199219 1265.535156 2768.648438 1266.886719 C 2765.101562 1268.230469 2761.449219 1270.027344 2757.570312 1272.234375 C 2753.710938 1274.441406 2749.601562 1277.039062 2670.640625 1330.320312 C 2591.699219 1383.605469 2589.089844 1385.195312 2586.378906 1386.671875 C 2583.671875 1388.125 2581.199219 1389.246094 2579.011719 1390.027344 C 2576.808594 1390.808594 2574.910156 1391.277344 2573.238281 1391.492188 C 2571.570312 1391.699219 2571.089844 1391.699219 2570.789062 1391.640625 C 2570.480469 1391.589844 2570.101562 1391.445312 2569.589844 1391.152344 C 2569.050781 1390.839844 2568.328125 1390.304688 2567.960938 1390.078125 C 2567.578125 1389.863281 2544.710938 1357.042969 2528.679688 1337.554688 C 2512.671875 1318.078125 2509.039062 1317.347656 2505.648438 1317.328125 C 2502.28125 1317.296875 2499.058594 1317.746094 2495.828125 1318.527344 C 2492.609375 1319.300781 2489.308594 1320.394531 2482.441406 1324.25 C 2475.570312 1328.113281 2468.761719 1332.519531 2463.191406 1336.011719 C 2457.621094 1339.519531 2453.371094 1342.054688 2450.570312 1343.578125 C 2447.78125 1345.082031 2447.121094 1345.375 2445.429688 1345.855469 C 2443.738281 1346.34375 2441.871094 1346.851562 2440.160156 1347.160156 C 2438.441406 1347.476562 2436.878906 1347.621094 2435.449219 1347.609375 C 2434.019531 1347.601562 2432.691406 1347.4375 2410.859375 1331.679688 C 2389.019531 1315.910156 2341.421875 1282.308594 2335.648438 1278.933594 C 2329.898438 1275.542969 2324.71875 1272.839844 2319.769531 1270.644531 C 2314.828125 1268.4375 2310.050781 1266.757812 2305.371094 1265.636719 C 2300.679688 1264.523438 2295.351562 1264.003906 2290.769531 1264.980469 C 2286.171875 1265.949219 2282.578125 1267.773438 2279.570312 1270.292969 C 2276.558594 1272.8125 2274.210938 1275.769531 2272.46875 1278.972656 C 2270.71875 1282.191406 2268.878906 1288.078125 2272.890625 1313.667969 C 2276.890625 1339.253906 2249.761719 1307.671875 2229.871094 1288.050781 C 2209.980469 1268.425781 2206.011719 1265.371094 2201.671875 1262.949219 C 2197.339844 1260.527344 2192.679688 1258.828125 2187.800781 1257.933594 C 2182.929688 1257.035156 2177.960938 1256.957031 2175.96875 1257.015625 C 2173.980469 1257.09375 2169.75 1257.492188 2166.351562 1258.488281 C 2162.960938 1259.476562 2159.589844 1260.871094 2155.878906 1262.65625 C 2152.171875 1264.433594 2148.011719 1266.640625 2114.761719 1285.746094 C 2081.511719 1304.851562 2019.75 1340.570312 2012.679688 1344.117188 C 2005.621094 1347.660156 1999.300781 1350.675781 1994.03125 1353 C 1988.75 1355.332031 1984.589844 1356.964844 1981.738281 1357.863281 C 1978.898438 1358.769531 1977.5 1359.03125 1976.800781 1359.070312 C 1976.109375 1359.121094 1976.359375 1359.160156 1977.519531 1359.707031 C 1978.679688 1360.242188 1980.128906 1361.53125 1980.949219 1362.949219 C 1981.761719 1364.363281 1982 1368.367188 1983.449219 1357.421875 C 1984.910156 1346.46875 1985.980469 1337.253906 1986.699219 1330.058594 C 1987.410156 1322.863281 1987.730469 1317.503906 1987.308594 1312.386719 C 1986.878906 1307.28125 1985.519531 1304.546875 1984.070312 1301.804688 C 1982.648438 1299.070312 1979.171875 1295.429688 1975.019531 1293.242188 C 1970.859375 1291.066406 1966.699219 1290.199219 1962.75 1290.148438 C 1958.800781 1290.101562 1953.871094 1290.824219 1947.488281 1293.664062 C 1941.109375 1296.503906 1932.179688 1301.863281 1919.46875 1310.015625 C 1906.78125 1318.167969 1890.191406 1329.285156 1869.640625 1343.316406 C 1849.078125 1357.355469 1824.621094 1374.320312 1822.460938 1375.679688 C 1820.300781 1377.015625 1818.359375 1378.128906 1816.730469 1378.921875 C 1815.101562 1379.699219 1813.828125 1380.199219 1812.988281 1380.433594 C 1812.148438 1380.667969 1810.808594 1380.84375 1811.449219 1380.910156 C 1812.078125 1380.980469 1814.921875 1381.644531 1817.828125 1383.984375 C 1820.730469 1386.328125 1821.988281 1388.964844 1822.210938 1390.242188 C 1822.421875 1391.53125 1821.859375 1394.089844 1826.300781 1381.066406 C 1830.761719 1368.042969 1834.371094 1356.953125 1837.148438 1347.933594 C 1839.921875 1338.910156 1841.851562 1331.863281 1842.96875 1326.386719 C 1844.078125 1320.902344 1844.230469 1317.21875 1843.988281 1313.636719 C 1843.738281 1310.054688 1842.269531 1305.601562 1838.75 1301.53125 C 1835.230469 1297.460938 1830.398438 1295.246094 1826 1294.863281 C 1821.609375 1294.472656 1816.800781 1295.363281 1810.878906 1298.796875 C 1804.949219 1302.234375 1796.730469 1308.757812 1784.660156 1319.085938 C 1772.570312 1329.394531 1756.5 1343.675781 1736.441406 1361.972656 C 1716.351562 1380.277344 1692.480469 1402.476562 1688.238281 1405.503906 C 1684.019531 1408.527344 1679.941406 1411.144531 1676.441406 1413.03125 C 1672.941406 1414.914062 1670.121094 1416.105469 1668.109375 1416.699219 C 1666.101562 1417.277344 1664.691406 1417.394531 1664.660156 1417.433594 C 1664.628906 1417.480469 1664.28125 1417.34375 1663.5 1416.835938 C 1662.730469 1416.339844 1661.609375 1415.335938 1660.25 1413.761719 C 1658.910156 1412.199219 1657.679688 1410.539062 1637.789062 1383.691406 C 1602.230469 1327.695312 1616.671875 1357.5 1601 1328.359375 " fill="#000"/></svg>