<svg xmlns="http://www.w3.org/2000/svg" viewBox="0 0 160 160" preserveAspectRatio="none"><path fill-rule="evenodd" d="M18.0,5.0 L23.6,4.9 L29.3,4.1 L34.9,5.8 L40.5,6.1 L46.2,2.8 L51.8,5.1 L57.5,5.6 L63.1,4.6 L68.7,6.2 L74.4,6.0 L80.0,4.8 L85.6,3.7 L91.3,5.0 L96.9,5.0 L102.5,2.8 L108.2,4.9 L113.8,4.8 L119.5,3.8 L125.1,7.3 L130.7,2.9 L136.4,5.4 L142.0,5.0 L155.0,18.0 L155.1,23.6 L155.9,29.3 L154.2,34.9 L153.9,40.5 L157.2,46.2 L154.9,51.8 L154.4,57.5 L155.4,63.1 L153.8,68.7 L154.0,74.4 L155.2,80.0 L156.3,85.6 L155.0,91.3 L155.0,96.9 L157.2,102.5 L155.1,108.2 L155.2,113.8 L156.2,119.5 L152.7,125.1 L157.1,130.7 L154.6,136.4 L155.0,142.0 L142.0,155.0 L136.4,155.1 L130.7,155.9 L125.1,154.2 L119.5,153.9 L113.8,157.2 L108.2,154.9 L102.5,154.4 L96.9,155.4 L91.3,153.8 L85.6,154.0 L80.0,155.2 L74.4,156.3 L68.7,155.0 L63.1,155.0 L57.5,157.2 L51.8,155.1 L46.2,155.2 L40.5,156.2 L34.9,152.7 L29.3,157.1 L23.6,154.6 L18.0,155.0 L5.0,142.0 L4.9,136.4 L4.1,130.7 L5.8,125.1 L6.1,119.5 L2.8,113.8 L5.1,108.2 L5.6,102.5 L4.6,96.9 L6.2,91.3 L6.0,85.6 L4.8,80.0 L3.7,74.4 L5.0,68.7 L5.0,63.1 L2.8,57.5 L4.9,51.8 L4.8,46.2 L3.8,40.5 L7.3,34.9 L2.9,29.3 L5.4,23.6 L5.0,18.0 Z M18.0,17.0 L23.6,19.1 L29.3,18.6 L34.9,16.7 L40.5,19.3 L46.2,17.7 L51.8,19.0 L57.5,18.6 L63.1,18.5 L68.7,15.7 L74.4,16.1 L80.0,17.9 L85.6,15.6 L91.3,15.8 L96.9,17.5 L102.5,18.7 L108.2,18.8 L113.8,15.0 L119.5,18.4 L125.1,16.0 L130.7,15.5 L136.4,15.8 L142.0,17.0 L143.0,18.0 L140.9,23.6 L141.4,29.3 L143.3,34.9 L140.7,40.5 L142.3,46.2 L141.0,51.8 L141.4,57.5 L141.5,63.1 L144.3,68.7 L143.9,74.4 L142.1,80.0 L144.4,85.6 L144.2,91.3 L142.5,96.9 L141.3,102.5 L141.2,108.2 L145.0,113.8 L141.6,119.5 L144.0,125.1 L144.5,130.7 L144.2,136.4 L143.0,142.0 L142.0,143.0 L136.4,140.9 L130.7,141.4 L125.1,143.3 L119.5,140.7 L113.8,142.3 L108.2,141.0 L102.5,141.4 L96.9,141.5 L91.3,144.3 L85.6,143.9 L80.0,142.1 L74.4,144.4 L68.7,144.2 L63.1,142.5 L57.5,141.3 L51.8,141.2 L46.2,145.0 L40.5,141.6 L34.9,144.0 L29.3,144.5 L23.6,144.2 L18.0,143.0 L17.0,142.0 L19.1,136.4 L18.6,130.7 L16.7,125.1 L19.3,119.5 L17.7,113.8 L19.0,108.2 L18.6,102.5 L18.5,96.9 L15.7,91.3 L16.1,85.6 L17.9,80.0 L15.6,74.4 L15.8,68.7 L17.5,63.1 L18.7,57.5 L18.8,51.8 L15.0,46.2 L18.4,40.5 L16.0,34.9 L15.5,29.3 L15.8,23.6 L17.0,18.0 Z" fill="#fafafa"/></svg>