<svg xmlns="http://www.w3.org/2000/svg" viewBox="0 0 220 220" preserveAspectRatio="none"><path d="M24.0,15.0 L28.3,26.3 L32.6,5.7 L36.9,19.2 L41.2,21.5 L45.5,6.6 L49.8,20.3 L54.1,19.6 L58.4,11.1 L62.7,14.4 L67.0,4.9 L71.3,11.3 L75.6,16.0 L79.9,21.9 L84.2,12.0 L88.5,20.2 L92.8,17.1 L97.1,6.8 L101.4,3.7 L105.7,17.2 L110.0,14.9 L114.3,21.0 L118.6,8.9 L122.9,12.2 L127.2,10.7 L131.5,14.0 L135.8,27.0 L140.1,14.1 L144.4,10.0 L148.7,17.9 L153.0,20.7 L157.3,17.3 L161.6,18.6 L165.9,14.2 L170.2,4.8 L174.5,24.0 L178.8,13.2 L183.1,27.4 L187.4,12.3 L191.7,24.5 L196.0,15.0 L205.0,24.0 L202.0,28.3 L203.7,32.6 L204.7,36.9 L212.0,41.2 L196.7,45.5 L202.1,49.8 L215.4,54.1 L212.9,58.4 L214.3,62.7 L200.2,67.0 L200.5,71.3 L211.2,75.6 L210.8,79.9 L204.4,84.2 L209.3,88.5 L199.3,92.8 L205.4,97.1 L214.1,101.4 L209.3,105.7 L199.0,110.0 L205.3,114.3 L206.2,118.6 L204.4,122.9 L217.1,127.2 L204.2,131.5 L197.7,135.8 L194.7,140.1 L197.9,144.4 L197.8,148.7 L204.9,153.0 L192.5,157.3 L213.0,161.6 L197.4,165.9 L204.4,170.2 L198.4,174.5 L212.1,178.8 L214.5,183.1 L207.3,187.4 L214.9,191.7 L205.0,196.0 L196.0,205.0 L191.7,197.5 L187.4,195.7 L183.1,197.1 L178.8,203.8 L174.5,208.1 L170.2,203.7 L165.9,195.9 L161.6,201.8 L157.3,212.2 L153.0,211.4 L148.7,213.4 L144.4,207.7 L140.1,202.3 L135.8,207.6 L131.5,192.7 L127.2,210.7 L122.9,218.0 L118.6,197.7 L114.3,215.8 L110.0,214.1 L105.7,191.9 L101.4,204.0 L97.1,210.7 L92.8,201.6 L88.5,210.7 L84.2,200.6 L79.9,217.2 L75.6,196.9 L71.3,200.8 L67.0,204.3 L62.7,210.9 L58.4,199.1 L54.1,196.2 L49.8,199.0 L45.5,208.9 L41.2,204.1 L36.9,193.5 L32.6,196.0 L28.3,209.7 L24.0,205.0 L15.0,196.0 L22.6,191.7 L15.1,187.4 L8.6,183.1 L24.4,178.8 L4.1,174.5 L8.7,170.2 L24.6,165.9 L20.7,161.6 L7.6,157.3 L24.1,153.0 L16.8,148.7 L14.0,144.4 L27.7,140.1 L6.6,135.8 L10.1,131.5 L11.7,127.2 L18.5,122.9 L16.2,118.6 L18.1,114.3 L4.6,110.0 L19.0,105.7 L20.8,101.4 L8.0,97.1 L21.4,92.8 L9.8,88.5 L25.4,84.2 L18.9,79.9 L20.2,75.6 L11.1,71.3 L10.0,67.0 L14.3,62.7 L17.4,58.4 L13.4,54.1 L11.3,49.8 L18.9,45.5 L4.9,41.2 L8.3,36.9 L20.3,32.6 L23.1,28.3 L15.0,24.0 Z" fill="#161616"/></svg>