<svg xmlns="http://www.w3.org/2000/svg" viewBox="0 0 200 200" preserveAspectRatio="none"><path d="M16.0,8.0 L18.6,8.0 L21.3,8.0 L23.9,8.0 L26.5,8.0 L29.1,8.0 L31.8,8.0 L34.4,8.0 L37.0,8.0 L39.6,8.0 L42.3,8.0 L44.9,8.0 L47.5,8.0 L50.1,8.0 L52.8,8.0 L55.4,8.0 L58.0,8.0 L60.6,8.0 L63.3,8.0 L65.9,8.0 L68.5,8.0 L71.1,8.0 L73.8,8.0 L76.4,8.0 L79.0,8.0 L81.6,8.0 L84.3,8.0 L86.9,8.0 L89.5,8.0 L92.1,8.0 L94.8,8.0 L97.4,8.0 L100.0,8.0 L102.6,8.0 L105.3,8.0 L107.9,8.0 L110.5,8.0 L113.1,8.0 L115.8,8.0 L118.4,8.0 L121.0,8.0 L123.6,8.0 L126.3,8.0 L128.9,8.0 L131.5,8.0 L134.1,8.0 L136.8,8.0 L139.4,8.0 L142.0,8.0 L144.6,8.0 L147.3,8.0 L149.9,8.0 L152.5,8.0 L155.1,8.0 L157.8,8.0 L160.4,8.0 L163.0,8.0 L165.6,8.0 L168.3,8.0 L170.9,8.0 L173.5,8.0 L176.1,8.0 L178.8,8.0 L181.4,8.0 L184.0,8.0 L192.0,16.0 L192.0,18.6 L192.0,21.3 L192.0,23.9 L192.0,26.5 L192.0,29.1 L192.0,31.8 L192.0,34.4 L192.0,37.0 L192.0,39.6 L192.0,42.3 L192.0,44.9 L192.0,47.5 L192.0,50.1 L192.0,52.8 L192.0,55.4 L192.0,58.0 L192.0,60.6 L192.0,63.3 L192.0,65.9 L192.0,68.5 L192.0,71.1 L192.0,73.8 L192.0,76.4 L192.0,79.0 L192.0,81.6 L192.0,84.3 L192.0,86.9 L192.0,89.5 L192.0,92.1 L192.0,94.8 L192.0,97.4 L192.0,100.0 L192.0,102.6 L192.0,105.3 L192.0,107.9 L192.0,110.5 L192.0,113.1 L192.0,115.8 L192.0,118.4 L192.0,121.0 L192.0,123.6 L192.0,126.3 L192.0,128.9 L192.0,131.5 L192.0,134.1 L192.0,136.8 L192.0,139.4 L192.0,142.0 L192.0,144.6 L192.0,147.3 L192.0,149.9 L192.0,152.5 L192.0,155.1 L192.0,157.8 L192.0,160.4 L192.0,163.0 L192.0,165.6 L192.0,168.3 L192.0,170.9 L192.0,173.5 L192.0,176.1 L192.0,178.8 L192.0,181.4 L192.0,184.0 L184.0,192.0 L181.4,190.5 L178.8,193.1 L176.1,192.1 L173.5,190.7 L170.9,192.6 L168.3,190.6 L165.6,190.7 L163.0,194.4 L160.4,193.5 L157.8,189.6 L155.1,189.1 L152.5,192.9 L149.9,190.9 L147.3,194.8 L144.6,191.0 L142.0,192.0 L139.4,190.1 L136.8,192.2 L134.1,189.4 L131.5,190.4 L128.9,193.0 L126.3,194.5 L123.6,193.9 L121.0,191.1 L118.4,190.4 L115.8,192.3 L113.1,194.3 L110.5,195.1 L107.9,193.6 L105.3,194.3 L102.6,194.5 L100.0,191.7 L97.4,191.6 L94.8,189.8 L92.1,192.2 L89.5,192.4 L86.9,191.2 L84.3,194.3 L81.6,191.6 L79.0,191.6 L76.4,193.3 L73.8,195.3 L71.1,193.3 L68.5,194.6 L65.9,192.8 L63.3,190.3 L60.6,192.6 L58.0,195.1 L55.4,191.2 L52.8,192.1 L50.1,190.6 L47.5,193.5 L44.9,190.4 L42.3,195.5 L39.6,190.0 L37.0,191.4 L34.4,194.8 L31.8,189.8 L29.1,191.7 L26.5,191.7 L23.9,191.5 L21.3,189.7 L18.6,189.1 L16.0,192.0 L8.0,184.0 L8.5,181.4 L4.5,178.8 L6.4,176.1 L6.8,173.5 L9.0,170.9 L8.0,168.3 L9.2,165.6 L8.2,163.0 L6.0,160.4 L8.2,157.8 L7.6,155.1 L7.0,152.5 L6.2,149.9 L7.8,147.3 L10.5,144.6 L8.1,142.0 L5.8,139.4 L6.5,136.8 L8.1,134.1 L8.9,131.5 L7.3,128.9 L7.6,126.3 L8.0,123.6 L8.9,121.0 L6.3,118.4 L5.1,115.8 L6.5,113.1 L10.5,110.5 L5.0,107.9 L8.2,105.3 L5.1,102.6 L7.9,100.0 L6.6,97.4 L6.7,94.8 L8.4,92.1 L8.8,89.5 L6.8,86.9 L8.2,84.3 L7.9,81.6 L7.4,79.0 L6.2,76.4 L7.1,73.8 L5.0,71.1 L9.4,68.5 L9.3,65.9 L6.3,63.3 L5.9,60.6 L8.1,58.0 L6.3,55.4 L9.7,52.8 L8.4,50.1 L6.0,47.5 L6.9,44.9 L8.6,42.3 L9.7,39.6 L5.4,37.0 L6.5,34.4 L6.6,31.8 L9.2,29.1 L10.3,26.5 L8.2,23.9 L7.2,21.3 L11.0,18.6 L8.0,16.0 Z" fill="#161616"/></svg>