<svg xmlns="http://www.w3.org/2000/svg" viewBox="0 0 200 200" preserveAspectRatio="none"><path d="M16.0,8.0 L18.6,8.0 L21.3,8.0 L23.9,8.0 L26.5,8.0 L29.1,8.0 L31.8,8.0 L34.4,8.0 L37.0,8.0 L39.6,8.0 L42.3,8.0 L44.9,8.0 L47.5,8.0 L50.1,8.0 L52.8,8.0 L55.4,8.0 L58.0,8.0 L60.6,8.0 L63.3,8.0 L65.9,8.0 L68.5,8.0 L71.1,8.0 L73.8,8.0 L76.4,8.0 L79.0,8.0 L81.6,8.0 L84.3,8.0 L86.9,8.0 L89.5,8.0 L92.1,8.0 L94.8,8.0 L97.4,8.0 L100.0,8.0 L102.6,8.0 L105.3,8.0 L107.9,8.0 L110.5,8.0 L113.1,8.0 L115.8,8.0 L118.4,8.0 L121.0,8.0 L123.6,8.0 L126.3,8.0 L128.9,8.0 L131.5,8.0 L134.1,8.0 L136.8,8.0 L139.4,8.0 L142.0,8.0 L144.6,8.0 L147.3,8.0 L149.9,8.0 L152.5,8.0 L155.1,8.0 L157.8,8.0 L160.4,8.0 L163.0,8.0 L165.6,8.0 L168.3,8.0 L170.9,8.0 L173.5,8.0 L176.1,8.0 L178.8,8.0 L181.4,8.0 L184.0,8.0 L192.0,16.0 L192.0,18.6 L192.0,21.3 L192.0,23.9 L192.0,26.5 L192.0,29.1 L192.0,31.8 L192.0,34.4 L192.0,37.0 L192.0,39.6 L192.0,42.3 L192.0,44.9 L192.0,47.5 L192.0,50.1 L192.0,52.8 L192.0,55.4 L192.0,58.0 L192.0,60.6 L192.0,63.3 L192.0,65.9 L192.0,68.5 L192.0,71.1 L192.0,73.8 L192.0,76.4 L192.0,79.0 L192.0,81.6 L192.0,84.3 L192.0,86.9 L192.0,89.5 L192.0,92.1 L192.0,94.8 L192.0,97.4 L192.0,100.0 L192.0,102.6 L192.0,105.3 L192.0,107.9 L192.0,110.5 L192.0,113.1 L192.0,115.8 L192.0,118.4 L192.0,121.0 L192.0,123.6 L192.0,126.3 L192.0,128.9 L192.0,131.5 L192.0,134.1 L192.0,136.8 L192.0,139.4 L192.0,142.0 L192.0,144.6 L192.0,147.3 L192.0,149.9 L192.0,152.5 L192.0,155.1 L192.0,157.8 L192.0,160.4 L192.0,163.0 L192.0,165.6 L192.0,168.3 L192.0,170.9 L192.0,173.5 L192.0,176.1 L192.0,178.8 L192.0,181.4 L192.0,184.0 L184.0,192.0 L181.4,191.2 L178.8,190.4 L176.1,193.7 L173.5,193.2 L170.9,193.6 L168.3,194.2 L165.6,192.2 L163.0,190.6 L160.4,192.9 L157.8,191.1 L155.1,191.6 L152.5,190.2 L149.9,189.6 L147.3,194.9 L144.6,190.8 L142.0,189.6 L139.4,193.2 L136.8,194.5 L134.1,192.8 L131.5,189.8 L128.9,192.2 L126.3,191.2 L123.6,192.6 L121.0,193.3 L118.4,190.3 L115.8,191.2 L113.1,193.5 L110.5,193.6 L107.9,193.8 L105.3,191.9 L102.6,190.7 L100.0,192.2 L97.4,192.1 L94.8,191.6 L92.1,193.0 L89.5,193.7 L86.9,192.4 L84.3,192.6 L81.6,192.2 L79.0,193.8 L76.4,190.6 L73.8,191.9 L71.1,189.8 L68.5,188.8 L65.9,194.1 L63.3,192.1 L60.6,194.8 L58.0,191.9 L55.4,190.4 L52.8,192.5 L50.1,190.0 L47.5,195.4 L44.9,193.7 L42.3,191.5 L39.6,192.0 L37.0,195.1 L34.4,188.9 L31.8,190.6 L29.1,192.0 L26.5,193.4 L23.9,193.2 L21.3,193.8 L18.6,191.1 L16.0,192.0 L8.0,184.0 L5.1,181.4 L8.6,178.8 L4.4,176.1 L6.5,173.5 L9.8,170.9 L6.5,168.3 L7.3,165.6 L7.5,163.0 L8.0,160.4 L7.9,157.8 L10.2,155.1 L5.3,152.5 L9.5,149.9 L9.1,147.3 L8.3,144.6 L11.0,142.0 L9.9,139.4 L9.7,136.8 L8.5,134.1 L5.1,131.5 L6.8,128.9 L8.4,126.3 L6.1,123.6 L10.0,121.0 L8.7,118.4 L8.6,115.8 L7.3,113.1 L6.6,110.5 L9.6,107.9 L6.5,105.3 L8.1,102.6 L7.5,100.0 L9.9,97.4 L6.2,94.8 L8.7,92.1 L6.4,89.5 L9.8,86.9 L6.0,84.3 L6.7,81.6 L8.0,79.0 L8.1,76.4 L9.7,73.8 L9.7,71.1 L8.3,68.5 L5.4,65.9 L8.7,63.3 L9.4,60.6 L7.3,58.0 L9.5,55.4 L6.0,52.8 L11.0,50.1 L11.0,47.5 L10.7,44.9 L8.7,42.3 L5.5,39.6 L10.5,37.0 L6.3,34.4 L8.8,31.8 L6.8,29.1 L10.2,26.5 L7.1,23.9 L7.2,21.3 L10.7,18.6 L8.0,16.0 Z" fill="#161616"/></svg>