<svg fill="#000000" viewBox="0 0 35 35" data-name="Layer 2" id="ff3bab54-7a15-4d93-9678-39e70fcd5841" xmlns="http://www.w3.org/2000/svg"><g id="SVGRepo_bgCarrier" stroke-width="0"></g><g id="SVGRepo_tracerCarrier" stroke-linecap="round" stroke-linejoin="round"></g><g id="SVGRepo_iconCarrier"><path d="M17.5,29.334a6.5,6.5,0,0,1-6.491-6.49v-1.09a11.733,11.733,0,1,1,12.982,0v1.091A6.5,6.5,0,0,1,17.5,29.334Zm0-26.584a9.233,9.233,0,0,0-4.615,17.228,1.248,1.248,0,0,1,.624,1.082v1.784a3.991,3.991,0,0,0,7.982,0V21.06a1.25,1.25,0,0,1,.622-1.081A9.232,9.232,0,0,0,17.5,2.75Z"></path><path d="M21.048,34.75h-7.1a1.25,1.25,0,0,1,0-2.5h7.1a1.25,1.25,0,1,1,0,2.5Z"></path></g></svg>
