<?xml version="1.0" encoding="UTF-8"?>
<svg version="1.1" xmlns="http://www.w3.org/2000/svg" width="1024" height="1024">
<path d="M0 0 C337.92 0 675.84 0 1024 0 C1024 337.92 1024 675.84 1024 1024 C686.08 1024 348.16 1024 0 1024 C0 686.08 0 348.16 0 0 Z " fill="#F2E3DE" transform="translate(0,0)"/>
<path d="M0 0 C0.94827667 -0.00133942 1.89655334 -0.00267883 2.87356567 -0.00405884 C57.07013367 0.01235836 110.97180222 9.66517894 162.47851562 26.37451172 C166.32885943 27.618864 170.19581622 28.8076536 174.0625 30 C193.84902501 36.15172703 213.36294922 43.36414372 232.125 52.1875 C232.88047119 52.54030029 233.63594238 52.89310059 234.41430664 53.2565918 C238.45476592 55.20843007 241.67953714 57.42548508 245.1875 60.25 C247.28781035 61.06289198 247.28781035 61.06289198 249.5 61.5 C265.56951228 65.94373658 280.32304269 75.78991035 290.1875 89.25 C295.35060335 98.65422395 297.36769787 105.9411246 297.375 116.5 C297.38724609 117.41652344 297.39949219 118.33304687 297.41210938 119.27734375 C297.43097419 128.09350195 295.50823399 135.12616347 291.9375 143.125 C291.63392578 143.82189941 291.33035156 144.51879883 291.01757812 145.23681641 C288.86246735 150.07013396 286.35962837 154.41540179 283.15625 158.6484375 C280.03683239 167.02558317 284.81544065 177.11190904 287.5 185.0625 C288.28855297 187.44374811 289.07631713 189.82525758 289.86328125 192.20703125 C290.4524231 193.97506104 290.4524231 193.97506104 291.0534668 195.77880859 C292.11780897 199.03668094 293.11836168 202.30673266 294.1015625 205.58984375 C296.51517196 213.50362273 299.38723747 221.24052199 302.25 229 C315.54382186 265.14724595 315.54382186 265.14724595 311.0234375 278.75390625 C308.8625487 283.18095793 306.55538837 287.02516339 303.1875 290.625 C302.5275 291.49125 301.8675 292.3575 301.1875 293.25 C302.33738223 298.55353844 305.1753808 302.94250999 308 307.5 C308.48138428 308.28141357 308.96276855 309.06282715 309.45874023 309.86791992 C320.0850379 326.86761551 332.62604652 342.65647154 345.1875 358.25 C347.16496325 360.72873637 349.14143552 363.20819778 351.11328125 365.69140625 C352.54048777 367.4518964 353.9982971 369.18787263 355.48046875 370.90234375 C361.5891839 378.03429427 368.34572332 386.19629058 368.75 396 C367.99365049 404.94745383 363.95147526 411.39311413 357.1875 417.25 C350.13352059 421.61005169 342.22498682 423.5246756 334.1875 425.25 C333.5275 427.56 332.8675 429.87 332.1875 432.25 C332.868125 432.45625 333.54875 432.6625 334.25 432.875 C341.65295726 436.34021404 345.67838235 441.52186274 349.078125 448.90625 C352.11956374 458.07340337 350.87249375 466.86544527 346.80859375 475.48828125 C342.89906708 482.14860741 337.87776875 487.40309547 331.1875 491.25 C331.80364681 495.11492089 332.988116 498.23267032 334.6875 501.75 C337.87799096 508.35357432 338.40811587 514.01792006 338.4375 521.25 C338.44342163 522.51106567 338.44342163 522.51106567 338.44946289 523.79760742 C338.39224656 529.97756111 337.53100712 535.54650297 335.74609375 541.48828125 C335.072594 544.81810168 335.25661859 546.98321525 336.1875 550.25 C337.87546701 552.68286648 337.87546701 552.68286648 340.125 554.875 C341.34316406 556.17050781 341.34316406 556.17050781 342.5859375 557.4921875 C343.44445312 558.40226563 344.30296875 559.31234375 345.1875 560.25 C354.76662743 570.89020001 362.96992338 582.05011642 366.1875 596.25 C366.36224854 596.8473999 366.53699707 597.4447998 366.71704102 598.06030273 C367.25684892 600.57277656 367.24684775 602.8022169 367.1875 605.37109375 C367.11558206 620.11073552 369.65056466 630.56810161 376.04492188 643.73144531 C377.92493179 647.87550136 379.29166902 652.15455118 380.625 656.5 C380.85920654 657.25007324 381.09341309 658.00014648 381.3347168 658.77294922 C381.98722495 660.92388971 382.59835734 663.08089509 383.1875 665.25 C383.38110107 665.94988037 383.57470215 666.64976074 383.77416992 667.37084961 C388.30128662 685.37610543 386.36676777 705.27073958 376.875 721.25 C368.38876425 733.47531154 357.07231412 741.78365278 342.3828125 744.83203125 C323.59771111 747.28925111 308.73087432 742.97111534 293.1875 732.25 C292.5275 731.64800781 291.8675 731.04601562 291.1875 730.42578125 C289.18704384 728.97190497 289.18704384 728.97190497 286.54296875 729.61328125 C285.49753906 729.92652344 284.45210937 730.23976563 283.375 730.5625 C269.06674351 734.00486296 252.79769008 734.2803037 239.1875 728.25 C238.15496094 727.80269531 237.12242187 727.35539063 236.05859375 726.89453125 C229.40352071 723.78771993 223.67733905 720.11727998 218.1875 715.25 C217.31351563 714.48171875 216.43953125 713.7134375 215.5390625 712.921875 C207.34643886 705.25706745 201.20472743 696.28445487 196.1875 686.25 C194.23044662 685.56510129 194.23044662 685.56510129 191.84765625 685.1015625 C190.94853516 684.90046875 190.04941406 684.699375 189.12304688 684.4921875 C187.24289196 684.0882929 185.36268563 683.68463757 183.48242188 683.28125 C173.21082729 680.98413472 164.0291947 676.8313243 154.5625 672.3125 C153.67304687 671.89548828 152.78359375 671.47847656 151.8671875 671.04882812 C146.961666 668.71509841 142.35813521 666.2265296 137.86572266 663.16577148 C136.06723094 662.01049789 136.06723094 662.01049789 133.1875 662.25 C132.89359375 663.32701172 132.89359375 663.32701172 132.59375 664.42578125 C129.21407103 676.12354942 124.73107403 687.62391938 119.04296875 698.40234375 C118.54277222 699.35185913 118.54277222 699.35185913 118.0324707 700.32055664 C117.12235169 702.01365747 116.18323199 703.69107822 115.2421875 705.3671875 C113.94690266 708.13834637 113.94690266 708.13834637 114.6640625 710.69921875 C116.7134272 714.13059093 119.13059899 717.12296428 121.6875 720.1875 C127.02867262 726.72625929 131.99141405 733.44167677 136.84082031 740.34863281 C138.81954293 743.14237678 140.83838467 745.90646562 142.85375977 748.67382812 C168.06112122 783.33535199 190.47719862 819.17180836 203.54394531 860.24267578 C204.10376876 861.98883222 204.68660857 863.72757681 205.2734375 865.46484375 C210.42808744 881.15559816 215.45292842 899.62452896 215.1875 916.25 C204.04133919 912.00020809 194.98984565 892.23879795 190.10266113 881.97073364 C188.05321522 877.36938942 186.17861188 872.70051177 184.33764648 868.01248169 C183.00384718 864.61789819 181.63825735 861.23638087 180.27420044 857.85386658 C179.58068374 856.13408671 178.88851524 854.41376253 178.19772339 852.69288635 C171.19099237 835.26259787 163.9531939 817.78529908 155.18847656 801.15771484 C154.06463587 799.01583895 152.96594708 796.86187577 151.8671875 794.70703125 C151.03729973 793.09592048 150.20658169 791.4852371 149.375 789.875 C149.02091064 789.18059814 148.66682129 788.48619629 148.30200195 787.77075195 C143.71951666 779.00533067 138.38725526 770.65758704 133.1875 762.25 C133.19416183 762.85181091 133.20082367 763.45362183 133.20768738 764.07366943 C133.74637585 815.09828973 133.74637585 815.09828973 131.6875 831.4375 C131.48954834 833.05700562 131.48954834 833.05700562 131.28759766 834.70922852 C130.82754228 838.37771822 130.3521799 842.04378562 129.85205078 845.70703125 C127.94821059 861.19810697 134.99858738 872.9005417 142.1875 886.25 C146.73307182 894.79428175 146.73307182 894.79428175 146.1875 900.25 C141.23174951 899.84436918 139.47679138 897.82160208 136.3125 894.125 C131.29795918 888.39459751 126.01772694 883.0068732 120.57861328 877.67919922 C117.51452432 874.65637189 114.57375161 871.59145021 111.765625 868.328125 C107.9549935 863.91120815 103.84752841 859.8356093 99.6875 855.75 C94.87799376 851.02653144 90.25056926 846.2493045 85.85351562 841.13867188 C83.26568604 838.20498933 80.48629232 835.48069518 77.6875 832.75 C74.29497794 829.44002106 71.01810427 826.09802868 67.9315033 822.4981842 C64.43628134 818.4853124 60.77013282 814.69105756 57.00219727 810.93530273 C55.98118423 809.91166122 55.98118423 809.91166122 54.93954468 808.86734009 C52.71348799 806.63692181 50.4838403 804.41013499 48.25390625 802.18359375 C46.69109251 800.62010533 45.12842715 799.05646858 43.56590271 797.49269104 C40.30035875 794.22567781 37.03302601 790.96046708 33.7644043 787.6965332 C29.59069259 783.52851829 25.42148695 779.35602951 21.25361729 775.18217373 C18.03053509 771.95546508 14.80505894 768.73115792 11.57887077 765.50755501 C10.04126687 763.97061461 8.50439553 762.43294093 6.96829414 760.89449883 C4.81534996 758.73899378 2.65918933 756.58675614 0.50219727 754.43530273 C-0.12194565 753.80913559 -0.74608856 753.18296844 -1.3891449 752.53782654 C-5.11538753 748.82914632 -8.95680963 745.31143706 -12.95039463 741.89180088 C-16.22708298 739.00277542 -19.25549137 735.86769366 -22.3125 732.75 C-26.76196567 728.25227191 -31.22177094 723.86981655 -36.05859375 719.78515625 C-38.69966792 717.47348109 -41.12561882 714.96141265 -43.5625 712.4375 C-45.51448734 710.53973453 -47.50766319 708.75268548 -49.5625 706.96875 C-54.44111387 702.73158351 -59.122127 698.29849786 -63.8125 693.85546875 C-67.80294593 690.09104417 -71.85745144 686.42258366 -76 682.82617188 C-78.29664294 680.82898345 -80.55634471 678.79273519 -82.8125 676.75 C-89.8423807 670.41245603 -96.99545048 664.22806737 -104.18652344 658.07495117 C-108.5763083 654.31650225 -112.94827167 650.53807761 -117.3125 646.75 C-119.19625345 645.11728394 -121.08026255 643.48486338 -122.96435547 641.85253906 C-124.18034514 640.79814591 -125.3955372 639.74283208 -126.60986328 638.68652344 C-133.39550121 632.78678304 -140.2552562 627.03696636 -147.36279297 621.52807617 C-151.26684361 618.49368647 -155.08793272 615.37556516 -158.88256836 612.20556641 C-167.14730607 605.30446754 -175.65624337 598.8391446 -184.36328125 592.5078125 C-188.21762562 589.70211873 -191.99581695 586.81265685 -195.75 583.875 C-201.58242455 579.34945675 -207.61711617 575.26224857 -213.8125 571.25 C-214.8025 570.59 -215.7925 569.93 -216.8125 569.25 C-217.48932337 571.2804701 -218.16476215 573.31140595 -218.8359375 575.34375 C-219.51010599 577.35007542 -220.20409902 579.34981001 -220.9140625 581.34375 C-225.55995625 594.65198758 -229.12160558 608.41333388 -231.8125 622.25 C-230.58015625 622.48589844 -229.3478125 622.72179687 -228.078125 622.96484375 C-222.01047582 624.31834161 -216.33825115 626.54377704 -210.5625 628.8125 C-208.8455896 629.48176514 -208.8455896 629.48176514 -207.09399414 630.16455078 C-170.1454857 644.66655138 -134.91598125 662.27878087 -101.8125 684.25 C-101.0587207 684.75015625 -100.30494141 685.2503125 -99.52832031 685.765625 C-90.33755979 691.90104522 -81.48525281 698.4038715 -72.8125 705.25 C-75.14537127 706.06465346 -76.43214869 706.36854506 -78.82250977 705.62353516 C-79.54237061 705.26565918 -80.26223145 704.9077832 -81.00390625 704.5390625 C-82.26883911 703.92188354 -82.26883911 703.92188354 -83.55932617 703.29223633 C-84.95308472 702.59070435 -84.95308472 702.59070435 -86.375 701.875 C-87.37313721 701.38604248 -88.37127441 700.89708496 -89.3996582 700.39331055 C-92.24965364 698.99626236 -95.09455235 697.58935428 -97.93786621 696.17877197 C-133.24805435 678.68462816 -168.74883129 662.44828798 -205.80627441 648.98101807 C-207.70700148 648.288441 -209.60505003 647.58852579 -211.50292969 646.88818359 C-214.66355455 645.72328835 -217.82965746 644.57563949 -221 643.4375 C-221.87116455 643.1178125 -222.7423291 642.798125 -223.63989258 642.46875 C-233.21339953 638.93512687 -233.21339953 638.93512687 -242.93530273 640.18920898 C-245.07595644 641.62679848 -246.99167037 643.18333302 -248.9375 644.875 C-249.65977783 645.46531006 -250.38205566 646.05562012 -251.1262207 646.66381836 C-252.62977268 647.89625677 -254.12399174 649.14016501 -255.60888672 650.39501953 C-257.705572 652.15998903 -259.82951582 653.88175013 -261.97265625 655.58984375 C-270.17185455 662.13556342 -278.16662234 668.91002247 -286.09912109 675.77490234 C-287.81447649 677.25170162 -289.54010487 678.71549594 -291.26953125 680.17578125 C-298.83189419 686.57437702 -306.13065374 693.20263685 -313.33984375 699.99609375 C-316.22616527 702.7129547 -319.1599098 705.36900447 -322.125 708 C-326.40213488 711.81608385 -330.42605651 715.84478081 -334.453125 719.921875 C-336.47364063 721.91562883 -338.52745188 723.78628135 -340.6875 725.625 C-344.24536176 728.66430701 -347.52692297 731.92363368 -350.8125 735.25 C-354.68507174 739.17064836 -358.62042241 742.90404188 -362.8203125 746.4765625 C-366.15296851 749.44327981 -369.23251651 752.66292191 -372.3671875 755.8359375 C-375.10373479 758.53751294 -377.96229366 761.04078735 -380.8828125 763.5390625 C-382.94558521 765.36799863 -384.8784072 767.28580458 -386.8125 769.25 C-391.92986293 774.42733203 -397.35308094 779.17282974 -403.0625 783.6875 C-403.68640625 784.18121094 -404.3103125 784.67492187 -404.953125 785.18359375 C-406.8125 786.25 -406.8125 786.25 -410.8125 786.25 C-410.30908037 781.52827103 -408.35359115 778.92961028 -405.4375 775.25 C-404.7724646 774.40622803 -404.7724646 774.40622803 -404.09399414 773.54541016 C-399.99449459 768.3831837 -395.7350564 763.35588802 -391.4453125 758.3515625 C-389.10746349 755.61706908 -386.86317752 752.8168698 -384.625 750 C-379.92353829 744.21031569 -374.80807661 738.83070952 -369.65942383 733.43847656 C-366.4397534 730.06355998 -363.27631041 726.66662896 -360.2265625 723.13671875 C-356.58653484 718.93704328 -352.68241918 715.06225691 -348.70703125 711.18359375 C-345.8132064 708.33180994 -343.06779826 705.4238725 -340.42578125 702.3359375 C-336.71722336 698.04570539 -332.66707563 694.21424872 -328.5 690.375 C-323.67163149 685.88411211 -318.8804745 681.3826861 -314.25 676.6875 C-310.94958534 673.34825693 -307.56335592 670.20281945 -303.99609375 667.15234375 C-301.80433857 665.24288977 -299.6686946 663.27947782 -297.53833008 661.30200195 C-291.49197165 655.69321525 -285.24334588 650.41698021 -278.8125 645.25 C-276.13657112 643.04908808 -273.46363113 640.84483275 -270.796875 638.6328125 C-268.58681131 636.86823285 -266.37467235 635.19824911 -264.078125 633.5546875 C-263.12546753 632.85545166 -263.12546753 632.85545166 -262.15356445 632.14208984 C-260.91922251 631.23940705 -259.67083788 630.35550383 -258.40698242 629.49462891 C-253.39836337 625.78659049 -252.71530621 622.23008974 -251.8125 616.25 C-251.47167966 614.76644821 -251.11229835 613.28703666 -250.734375 611.8125 C-250.54641357 611.07209473 -250.35845215 610.33168945 -250.16479492 609.56884766 C-247.06420887 597.63152851 -243.19616422 586.13178462 -238.58203125 574.6953125 C-238.20602783 573.74962402 -237.83002441 572.80393555 -237.44262695 571.82958984 C-236.70281768 569.97726981 -235.94797209 568.1308677 -235.17651367 566.29150391 C-233.17778371 561.48428777 -233.17778371 561.48428777 -233.3515625 556.4140625 C-234.96902726 554.01813876 -236.68837657 551.96464977 -238.6875 549.875 C-245.73966695 542.17127415 -249.37585662 534.58715696 -249.1171875 523.99609375 C-248.4410636 517.90231036 -245.91604264 513.84662812 -241.25 509.9375 C-231.8874546 503.61563448 -220.71238114 503.64660797 -209.8125 503.25 C-210.23660156 502.8375 -210.66070312 502.425 -211.09765625 502 C-215.56960643 497.59684906 -219.7792892 493.05764861 -223.8125 488.25 C-224.2259668 487.76096191 -224.63943359 487.27192383 -225.06542969 486.76806641 C-246.36913133 461.41559398 -262.40269828 432.68527852 -272.8125 401.25 C-273.12767578 400.31752441 -273.44285156 399.38504883 -273.76757812 398.42431641 C-277.96430868 385.8144115 -280.80261655 373.06324798 -283.125 360 C-283.24837738 359.312547 -283.37175476 358.62509399 -283.49887085 357.91680908 C-286.7168605 339.74958967 -288.15349175 321.74452608 -288.07324219 303.29638672 C-288.06253154 300.38357624 -288.07321147 297.47138568 -288.0859375 294.55859375 C-288.09941309 277.22697585 -286.88875648 259.98771182 -284.0625 242.875 C-283.89331055 241.8444751 -283.72412109 240.8139502 -283.54980469 239.75219727 C-275.99480078 195.65338447 -258.92490389 151.69761103 -232.8125 115.25 C-232.12800781 114.27417969 -231.44351563 113.29835938 -230.73828125 112.29296875 C-216.46667338 92.24542528 -199.34740422 73.29445039 -179.8125 58.25 C-178.88050781 57.48945313 -177.94851563 56.72890625 -176.98828125 55.9453125 C-139.69678547 26.05481781 -94.12382864 9.85955124 -47.375 2.5 C-46.65618652 2.38430664 -45.93737305 2.26861328 -45.19677734 2.14941406 C-30.27887124 -0.03628672 -15.0441567 0.01270942 0 0 Z " fill="#2D2D2C" transform="translate(466.8125,82.75)"/>
<path d="M0 0 C9.03457632 -0.41468145 17.73127203 0.71061994 26.64916992 1.97143555 C29.03270017 2.30828853 31.41747475 2.63462847 33.80273438 2.95898438 C64.61480642 7.18945936 64.61480642 7.18945936 76.3125 10.75 C77.17294922 11.00531494 78.03339844 11.26062988 78.91992188 11.52368164 C81.61832026 12.33354359 84.30950707 13.16428352 87 14 C88.36970947 14.41838135 88.36970947 14.41838135 89.76708984 14.84521484 C120.83314104 24.40273877 120.83314104 24.40273877 128 36 C129.58439392 40.38218479 130.67386449 44.82107511 131.66122437 49.36572266 C132.28979011 52.25835765 132.9708522 55.13782533 133.64952087 58.01904297 C133.98244654 59.43411597 134.31277593 60.84980254 134.64039612 62.26611328 C136.35819343 69.66486532 138.60217936 76.79838223 141 84 C141.86528669 86.72572035 142.71354184 89.45665775 143.5625 92.1875 C143.77156982 92.85362305 143.98063965 93.51974609 144.19604492 94.20605469 C145.1630288 97.28852987 146.11086569 100.37475133 147.02734375 103.47265625 C149.41326164 111.51195387 152.38380826 119.15269289 155.80810547 126.80615234 C160.27804576 136.8292631 163.19826947 145.28007465 159.5 156.125 C157.41439529 160.88561945 154.34059831 164.22906293 150.609375 167.796875 C148.40219638 170.81835253 148.4594506 172.30996853 149 176 C150.03672978 178.76164005 151.38460265 181.29735554 152.8125 183.875 C153.21702393 184.6189502 153.62154785 185.36290039 154.03833008 186.12939453 C158.48598766 194.1370416 163.62611122 201.59339423 169 209 C169.53786133 209.74507812 170.07572266 210.49015625 170.62988281 211.2578125 C177.59558635 220.88344096 184.75293291 230.34909024 192.08544922 239.69799805 C195.44214328 243.97895081 198.71907863 248.30171901 201.9375 252.6875 C204.8879425 256.66537778 208.01020715 260.1289538 211.55859375 263.5703125 C215.9467822 267.92282462 216.34261573 271.54567765 216.3984375 277.5 C215.72863973 281.70265266 214.07799557 284.19604034 210.6796875 286.73046875 C203.09000725 290.67329707 196.43215749 291.83508938 188.06640625 292.578125 C180.4259289 293.28126909 172.8092533 295.44734611 166 299 C165.67 299.99 165.34 300.98 165 302 C172.92 303.98 172.92 303.98 181 306 C180.67 307.32 180.34 308.64 180 310 C178.59814453 310.09474609 178.59814453 310.09474609 177.16796875 310.19140625 C152.89317511 312.45451262 130.79352481 323.98121587 114.859375 342.58203125 C111.57993372 346.84668283 108.75930957 351.38677932 106 356 C80.17586464 348.62167561 57.34813739 331.00502091 38 313 C36.69213789 311.84887578 35.37974247 310.70287825 34.0625 309.5625 C29.87045591 305.91245757 25.77249654 302.16192097 21.66796875 298.4140625 C19.40769174 296.36889238 17.12281119 294.36304774 14.8125 292.375 C-9.34652885 271.19917107 -22.28233498 245.44102933 -28 214 C-28 213.01 -28 212.02 -28 211 C-28.66 211 -29.32 211 -30 211 C-30.13277344 211.83144531 -30.26554688 212.66289062 -30.40234375 213.51953125 C-30.57894531 214.60621094 -30.75554687 215.69289063 -30.9375 216.8125 C-31.11152344 217.89144531 -31.28554688 218.97039062 -31.46484375 220.08203125 C-32 223 -32 223 -33 226 C-34.76333689 249.88409418 -30.40993229 272.12283294 -15 291 C-15 291.66 -15 292.32 -15 293 C-14.34 293 -13.68 293 -13 293 C-13.23396484 292.09507812 -13.23396484 292.09507812 -13.47265625 291.171875 C-13.66730469 290.37265625 -13.86195313 289.5734375 -14.0625 288.75 C-14.25972656 287.96109375 -14.45695313 287.1721875 -14.66015625 286.359375 C-15.01497267 283.89605178 -14.76877544 282.34395868 -14 280 C4.2080362 299.43033492 4.2080362 299.43033492 4 309 C4.04640625 309.9384375 4.0928125 310.876875 4.140625 311.84375 C4.37642534 318.51353115 3.73649802 323.90658336 1 330 C0.50693359 331.12535156 0.50693359 331.12535156 0.00390625 332.2734375 C-4.15925365 340.71500049 -10.86487523 345.77915513 -18.75 350.625 C-23.15256 353.34186732 -26.23007545 355.60632657 -29 360 C-29.50379029 362.71305777 -29.50379029 362.71305777 -29 365 C-27.99430557 366.23501747 -27.99430557 366.23501747 -25.953125 366.0546875 C-14.25180902 365.27685436 -4.5475223 361.66007861 3.90625 353.3984375 C11.50346399 344.69565879 13.59584963 335.33816731 13 324 C12.72756589 321.99079847 12.42849573 319.98179275 12 318 C15.28744832 317.61441934 16.62773002 317.72574698 19.33666992 319.72143555 C20.12662354 320.518479 20.91657715 321.31552246 21.73046875 322.13671875 C23.05208008 323.45893433 23.05208008 323.45893433 24.40039062 324.80786133 C25.33035551 325.76684142 26.25937585 326.72673829 27.1875 327.6875 C28.13850885 328.65600321 29.08968108 329.62434601 30.04101562 330.5925293 C36.61788094 337.3375688 42.70204488 344.2015014 48 352 C48.53625 352.78761719 49.0725 353.57523438 49.625 354.38671875 C52.92856555 359.46407376 55.23094772 363.95112399 55.2734375 370.1328125 C55.29124268 371.09920654 55.30904785 372.06560059 55.32739258 373.0612793 C55.35095825 374.57782104 55.35095825 374.57782104 55.375 376.125 C55.68423941 389.64701454 55.68423941 389.64701454 61.97265625 401.265625 C63.88800084 403.27390092 63.88800084 403.27390092 66.625 403.0625 C69.14950549 402.22035839 69.14950549 402.22035839 70.12890625 399.9375 C71.22337162 396.24674681 71.34144947 392.75286949 71.3125 388.9375 C71.30831055 388.18452637 71.30412109 387.43155273 71.29980469 386.65576172 C71.08900378 376.1269292 67.77774664 366.74160048 64 357 C70.11259783 357.50801751 74.88299598 359.46154969 80.375 362.125 C81.2198999 362.53169922 82.0647998 362.93839844 82.93530273 363.35742188 C88.90602146 366.30318455 94.06924804 369.49885811 99 374 C100.23943359 375.03060547 100.23943359 375.03060547 101.50390625 376.08203125 C108.24830095 381.82130007 115.08001437 387.68514327 116.6484375 396.74609375 C116.9043041 400.17954697 117.03471559 403.55819735 117 407 C120.43887696 406.0447564 121.91892781 405.09444492 124.2734375 402.3515625 C127.34453276 396.39002465 127.10280613 389.52767373 126 383 C124.38590551 378.49298838 122.45427983 373.45427983 119 370 C117.95419543 362.97816933 120.9334151 358.56522675 125 353 C130.83890831 345.70638086 136.98711344 339.80773193 145 335 C145.82177734 334.50306641 145.82177734 334.50306641 146.66015625 333.99609375 C158.09401705 327.186036 173.41918396 319.60990156 187 323 C190.08584563 325.23325014 191.99861343 327.78724788 194 331 C194.639375 331.969375 195.27875 332.93875 195.9375 333.9375 C197.69892948 339.01456144 198.18783763 343.36326153 195.93359375 348.3671875 C189.46777 358.83230823 178.55866919 363.55910851 167.93164062 368.96875 C158.35633567 373.98987255 148.91465418 380.00002055 145.421875 390.78515625 C143.12743851 402.83094783 145.67151047 412.98522521 152.01171875 423.1484375 C154.91962021 427.31890521 158.11449163 431.23616575 161.31835938 435.18115234 C173.61980949 450.35217865 183.76935551 464.61207892 183 485 C183.66 485 184.32 485 185 485 C188.65415305 466.81909096 185.73496884 451.64973143 175.59130859 436.23974609 C173.61814359 433.31384991 171.59815135 430.42287313 169.55859375 427.54296875 C161.9147581 416.73756294 155.86621346 406.71037471 158 393 C161.7971223 385.8194084 169.41355916 380.60819341 177 378 C179.66015625 378.05078125 179.66015625 378.05078125 182 379 C183.546875 381.14453125 183.546875 381.14453125 184.75 383.8125 C185.36101562 385.12154297 185.36101562 385.12154297 185.984375 386.45703125 C190.26121628 397.16558384 188.24892619 408.1546274 184.91015625 418.78125 C183.11751089 425.1209057 182.90877928 430.46283477 185.875 436.4375 C188.80913913 441.16196131 192.58742277 445.07034159 196.375 449.1171875 C206.28312176 459.99842837 216.03148542 473.13379807 215.99389648 488.49414062 C215.89243371 490.17429819 215.7832641 491.8540054 215.66699219 493.53320312 C214.81968678 507.00089954 219.03189342 516.54648199 224.83349609 528.46044922 C231.44927988 542.86341761 234.10638899 562.3975262 229.375 577.75 C224.38280487 590.13481858 214.64944981 598.09591957 202.89453125 603.87109375 C194.27193584 607.23402232 185.13036926 607.17553936 176.625 603.6875 C172.91713488 602.02345811 169.45346725 600.14114969 166 598 C167.44383337 594.75502096 169.27387322 592.45868851 171.625 589.8125 C185.93567352 572.14532305 190.25801529 549.16503132 189 527 C188.10457367 516.6980267 188.10457367 516.6980267 185 507 C183.08947887 508.91052113 183.61389692 511.77153165 183.4050293 514.33569336 C181.38967374 539.01984055 174.87232637 564.55030667 155.38623047 581.39501953 C143.87593317 590.49291752 131.7401408 595.29893961 117 594 C102.201227 591.17690479 89.58942927 581.4867032 80.80664062 569.35107422 C78.00234379 565.15307564 75.18752288 560.80069179 73.21533203 556.14941406 C71.89528415 553.2814395 70.92321544 551.45662696 68.03149414 550.02636719 C65.61723471 549.29251854 63.22471809 548.74189312 60.75 548.25 C59.09803876 547.88433825 57.44697894 547.51457882 55.796875 547.140625 C54.98951904 546.96007568 54.18216309 546.77952637 53.3503418 546.59350586 C49.77711615 545.69119865 46.41517486 544.36983767 43 543 C41.31970703 542.37931641 41.31970703 542.37931641 39.60546875 541.74609375 C24.49703134 535.96172057 10.13199625 528.47072845 -3 519 C-3.95777344 518.31550781 -4.91554688 517.63101563 -5.90234375 516.92578125 C-16.52864757 509.14805296 -27.0443094 500.68628641 -36 491 C-36.51046875 490.45988281 -37.0209375 489.91976563 -37.546875 489.36328125 C-54.66953174 470.56912706 -66.82852346 448.59440294 -76 425 C-76.25861816 424.34402832 -76.51723633 423.68805664 -76.78369141 423.01220703 C-83.88413985 404.66323111 -86.976858 384.56454567 -88 365 C-88.0825 363.73397949 -88.165 362.46795898 -88.25 361.16357422 C-89.97372284 333.6087385 -89.97372284 333.6087385 -84.61889648 327.16479492 C-82.2293639 324.90731224 -79.63096674 322.96588964 -77 321 C-74.96105404 318.97443734 -73.09726676 316.82537319 -71.25 314.625 C-70.79189941 314.08593018 -70.33379883 313.54686035 -69.86181641 312.99145508 C-53.78522201 293.46406185 -51.7699258 267.27068017 -51.625 243 C-51.60421387 241.08791748 -51.60421387 241.08791748 -51.58300781 239.13720703 C-51.6918397 217.07010979 -59.2081458 198.5041476 -74.6875 182.875 C-87.17759866 170.6505779 -101.67204575 161.4026408 -116.21679688 151.83398438 C-120.15527724 149.23873311 -124.07891781 146.62143913 -128 144 C-124.66668035 140.53334756 -121.26119159 137.57822569 -117.375 134.75 C-108.73791921 128.35686667 -100.51293906 121.58625953 -92.58203125 114.3359375 C-91.21847037 113.1023378 -89.84988357 111.87332822 -88.44458008 110.6875 C-81.6404321 104.9075042 -75.38155995 98.56763318 -69.07348633 92.25878906 C-67.07588048 90.26336586 -65.07040647 88.27608944 -63.06445312 86.2890625 C-56.61481731 79.8669841 -50.42867584 73.43596168 -44.80541992 66.2668457 C-43.04397206 64.05521035 -41.18824928 61.99448888 -39.25 59.9375 C-23.50786877 42.32871289 -10.56017941 21.05476764 0 0 Z " fill="#F1E2DD" transform="translate(603,203)"/>
<path d="M0 0 C1.07973083 0.00040787 1.07973083 0.00040787 2.18127441 0.00082397 C14.22529952 0.02157351 26.11687045 0.60654214 38.10009766 1.87109375 C41.4744864 2.21691123 44.85138802 2.51616162 48.23046875 2.8125 C63.11367518 4.16569849 77.57469019 6.33755 92.16992188 9.53466797 C95.18644406 10.18727155 98.20815688 10.80422796 101.234375 11.41015625 C139.59514956 19.119615 176.90547161 30.51926362 213.1875 45.1875 C210.38300734 47.99199266 207.11673343 48.32753814 203.375 49.25 C178.57879702 55.8415221 156.75194162 69.34088988 134.97607422 82.51367188 C118.31340944 92.57389995 101.41111127 102.17895127 84.125 111.125 C83.0100415 111.70290283 81.89508301 112.28080566 80.74633789 112.8762207 C64.51346264 121.19472486 47.99575591 128.69863723 31.125 135.625 C29.33259714 136.36449281 27.54019809 137.10399487 25.74780273 137.84350586 C15.45432803 142.07985932 5.1346097 146.24178711 -5.25 150.25 C-6.31420166 150.66113037 -7.37840332 151.07226074 -8.47485352 151.49584961 C-15.55020219 154.1875 -15.55020219 154.1875 -17.8125 154.1875 C-17.8125 154.8475 -17.8125 155.5075 -17.8125 156.1875 C2.2351422 153.14322841 21.38952215 148.66832081 40.625 142.25 C41.3846405 141.99719269 42.14428101 141.74438538 42.92694092 141.48391724 C70.23982461 132.3499698 95.67311118 120.28151233 120.1875 105.1875 C120.5175 105.8475 120.8475 106.5075 121.1875 107.1875 C119.91895563 109.73699504 118.59071953 112.12775267 117.125 114.5625 C116.67672852 115.31345947 116.22845703 116.06441895 115.76660156 116.83813477 C103.56822029 136.93820952 89.2651281 156.03609529 73.1875 173.1875 C71.99311243 174.53559567 70.80510135 175.88938087 69.625 177.25 C60.99381628 187.15463706 52.25485852 196.83068602 42.26171875 205.390625 C39.98592282 207.3621243 37.77827333 209.39884395 35.5625 211.4375 C29.92519969 216.52229308 23.9849041 221.17260845 17.9765625 225.80566406 C16.21874538 227.1633667 14.46806121 228.52980026 12.71875 229.8984375 C10.53351366 231.60647471 8.33207011 233.28894897 6.11328125 234.953125 C3.26298862 237.06931221 3.26298862 237.06931221 1.04296875 239.109375 C-5.29414106 244.35905176 -12.17368016 243.80726061 -20.0234375 244.00390625 C-35.37836366 244.44444133 -49.54736154 250.00637243 -60.62890625 260.7421875 C-68.72781207 269.81180296 -72.95532139 279.93300488 -74.9375 291.8125 C-76.64824296 300.26504183 -80.84403052 306.70356916 -85.38476562 313.89306641 C-87.87385896 317.89315177 -90.21146069 321.98029257 -92.5625 326.0625 C-92.99755859 326.81039795 -93.43261719 327.5582959 -93.88085938 328.32885742 C-98.33985883 336.01658397 -102.55550654 343.83360256 -106.75 351.66796875 C-113.94402821 365.09268556 -121.45388112 378.29583565 -129.18847656 391.41552734 C-130.69237348 393.98246143 -132.17590855 396.55950615 -133.6484375 399.14453125 C-147.85428279 424.07186661 -163.5613903 446.81985994 -182.87890625 468.03125 C-184.51774922 469.85880822 -186.08468754 471.71482528 -187.625 473.625 C-191.3018617 477.93218085 -191.3018617 477.93218085 -193.8125 479.1875 C-198.29819142 478.26735817 -200.85134351 475.45872524 -203.8125 472.1875 C-204.76769531 471.18589844 -204.76769531 471.18589844 -205.7421875 470.1640625 C-217.83920602 457.20604622 -226.98883291 442.48445119 -235.8125 427.1875 C-236.26544434 426.40938965 -236.71838867 425.6312793 -237.18505859 424.82958984 C-252.87120662 397.7930675 -261.42925962 369.99295174 -266.4609375 339.23974609 C-266.81566429 337.16902846 -267.21494686 335.11120157 -267.625 333.05078125 C-270.17927563 319.82507331 -270.59310224 306.63109783 -270.8125 293.1875 C-270.83441406 291.94726074 -270.85632813 290.70702148 -270.87890625 289.42919922 C-271.10791265 274.423555 -270.98566588 259.59680546 -269.12451172 244.69287109 C-268.80234487 242.105957 -268.51241789 239.51650727 -268.22265625 236.92578125 C-262.87086279 191.495184 -245.76816286 145.35741589 -218.8125 108.1875 C-218.37470215 107.57745117 -217.9369043 106.96740234 -217.48583984 106.33886719 C-210.78981572 97.04374334 -203.67506914 88.51187666 -195.8125 80.1875 C-194.24605096 78.42015896 -192.68334775 76.64948845 -191.125 74.875 C-187.27935787 70.6020643 -183.21640635 66.87007686 -178.8125 63.1875 C-177.87921875 62.36636719 -176.9459375 61.54523438 -175.984375 60.69921875 C-138.85095167 28.18848001 -91.83845137 9.54787792 -43.25 3.0625 C-42.03892578 2.89363281 -40.82785156 2.72476563 -39.58007812 2.55078125 C-26.37533705 0.75431407 -13.31964827 -0.01913854 0 0 Z " fill="#F2E3DE" transform="translate(465.8125,95.8125)"/>
<path d="M0 0 C1.88961188 2.83441782 2.90924462 5.2020117 4.06640625 8.3828125 C13.11272573 32.83697411 24.24419768 53.8997224 41.625 73.453125 C43.01054481 75.01186292 44.37999263 76.58385518 45.75 78.15625 C51.62482498 84.81535838 57.89883869 90.64298357 65 96 C65.79921875 96.60328125 66.5984375 97.2065625 67.421875 97.828125 C80.56109481 107.36050015 93.30438487 113.10932239 109 117 C108.99333817 117.65938065 108.98667633 118.31876129 108.97981262 118.99812317 C108.91262533 125.95939171 108.86785963 132.92056589 108.83520508 139.88208008 C108.82026465 142.46838125 108.79990494 145.05465776 108.77368164 147.64086914 C108.62457673 162.74139592 108.89555858 177.19156412 112 192 C112.22018799 193.07628662 112.44037598 194.15257324 112.66723633 195.26147461 C113.23316458 197.87554559 113.84987117 200.46827625 114.5 203.0625 C114.69980469 203.89458984 114.89960938 204.72667969 115.10546875 205.58398438 C117.53413513 215.53842271 120.52037638 224.77520806 125 234 C125.30099609 234.62245605 125.60199219 235.24491211 125.91210938 235.88623047 C136.29047652 257.2696027 151.62705117 284.81352559 174 296 C174.22588591 306.32757287 173.77351764 316.34600065 172.45581055 326.59204102 C172.18640215 328.69607402 171.93498928 330.80171934 171.68554688 332.90820312 C170.64704349 341.40744552 169.11918419 349.69561997 167 358 C166.28585937 357.28457031 165.57171875 356.56914063 164.8359375 355.83203125 C163.01445661 354.00990944 161.18555004 352.19636133 159.3515625 350.38671875 C151.11219739 342.22998337 151.11219739 342.22998337 147.5625 338 C143.29551467 333.00823965 138.37413449 328.70809464 133.49023438 324.33740234 C132.11622482 323.10430531 130.75290784 321.85932139 129.390625 320.61328125 C124.35997507 316.02321372 119.19471814 311.65114127 113.8984375 307.37109375 C111.37080878 305.30334357 108.88627616 303.19392703 106.41235352 301.0625 C99.87569817 295.44454747 93.09868681 290.23155673 86.171875 285.10546875 C82.62523765 282.47885515 79.12798073 279.79347745 75.63891602 277.09106445 C66.97000824 270.3892596 58.10118885 264.09783027 49 258 C47.89280359 257.25568266 46.78571487 256.51120514 45.67871094 255.76660156 C11.15639357 232.55755813 -23.99824236 209.6797762 -61.95703125 192.42578125 C-65 191 -65 191 -66 190 C-66.26675172 185.94582214 -66.18993497 181.8742975 -66.1875 177.8125 C-66.18741943 176.57266357 -66.18733887 175.33282715 -66.18725586 174.05541992 C-66.10970646 161.01814105 -65.36595011 148.03100663 -64.23876953 135.04150391 C-64.09939281 133.26608963 -63.99813928 131.48545487 -63.99169922 129.70458984 C-63.7796161 122.15692607 -59.61060022 115.77032573 -56.17077637 109.253479 C-54.16909069 105.40068801 -52.29705229 101.4860066 -50.4140625 97.57421875 C-49.62010856 95.93539332 -48.82583474 94.29672281 -48.03125 92.65820312 C-46.83027137 90.17850395 -45.63024245 87.69836166 -44.43261719 85.21704102 C-39.28849985 74.56483577 -33.97010406 64.03123101 -28.42382812 53.58276367 C-26.11830789 49.23707099 -23.86085299 44.86816413 -21.62109375 40.48828125 C-21.27272461 39.80815475 -20.92435547 39.12802826 -20.56542969 38.42729187 C-19.17241749 35.70676778 -17.78054299 32.98567877 -16.39282227 30.26245117 C-11.17457385 20.02913631 -5.69873849 9.97383242 0 0 Z " fill="#F2E2DE" transform="translate(392,420)"/>
<path d="M0 0 C0.80953125 -0.0098291 1.6190625 -0.0196582 2.453125 -0.02978516 C32.0010993 0.17327485 58.43278256 12.01915105 84.89453125 24.30078125 C85.93738281 24.78305176 86.98023438 25.26532227 88.0546875 25.76220703 C117.96432628 39.66651917 146.39537111 56.10538914 173.89453125 74.30078125 C174.91933594 74.97109375 175.94414062 75.64140625 177 76.33203125 C191.41351528 85.82433281 205.26307878 95.96296539 218.8046875 106.65625 C220.73283459 108.17353958 222.67026771 109.6776045 224.61328125 111.17578125 C241.71797198 124.39855635 257.72126807 138.91178447 272.89453125 154.30078125 C276.01609337 157.43327704 279.15334648 160.54969364 282.29296875 163.6640625 C283.95188823 165.31373641 285.61074057 166.96347783 287.26953125 168.61328125 C288.50703125 169.83821289 288.50703125 169.83821289 289.76953125 171.08789062 C294.15186936 175.45283851 298.38101905 179.88094231 302.41064453 184.57397461 C304.27111422 186.7390128 306.20781604 188.82894392 308.14453125 190.92578125 C340.62442509 227.05137746 340.62442509 227.05137746 339.84375 247.625 C339.80572266 248.64561523 339.76769531 249.66623047 339.72851562 250.71777344 C339.68017578 251.79704102 339.63183594 252.87630859 339.58203125 253.98828125 C339.53498047 255.09719727 339.48792969 256.20611328 339.43945312 257.34863281 C338.96762331 267.44637339 338.46231284 277.79424906 336.39013672 287.71582031 C335.90833491 290.22878461 335.64938287 292.6564906 335.46484375 295.20703125 C335.35462891 296.57021484 335.35462891 296.57021484 335.2421875 297.9609375 C335.09379648 299.8535738 334.95316438 301.7468345 334.8203125 303.640625 C334.40682231 308.58148241 334.03663733 312.24866631 330.89453125 316.30078125 C327.86486478 315.97747777 326.26724019 315.64802561 324.0078125 313.54296875 C323.41355469 312.76179688 322.81929687 311.980625 322.20703125 311.17578125 C321.170625 309.81453125 321.170625 309.81453125 320.11328125 308.42578125 C317.28490544 304.44215334 314.62782501 300.3581227 311.96264648 296.2644043 C307.24273809 289.12696007 301.8074597 282.60825333 296.33544922 276.04150391 C294.4645336 273.78131612 292.64687512 271.48112346 290.83203125 269.17578125 C280.37857272 256.07587752 269.05324395 243.70568249 257.71484375 231.375 C255.84746105 229.34307598 253.98861959 227.30385362 252.13671875 225.2578125 C246.70220219 219.26650449 241.11912255 213.48777238 235.36328125 207.8046875 C233.3460577 205.75873766 231.48001896 203.69367592 229.64453125 201.48828125 C225.65903727 196.81132807 221.10183683 192.74819125 216.59057617 188.59033203 C212.79507202 185.08888888 209.08316905 181.539938 205.45703125 177.86328125 C201.4279284 173.79461274 197.25751943 170.00562376 192.89453125 166.30078125 C191.85499419 165.40940731 190.8159755 164.51742865 189.77734375 163.625 C187.38939122 161.57367962 184.99839534 159.52598395 182.60546875 157.48046875 C180.18631745 155.41107427 177.77514392 153.33300818 175.37109375 151.24609375 C168.0157999 144.87295161 160.51415947 138.74721376 152.81640625 132.79296875 C150.75189266 131.1900334 148.69770649 129.57446067 146.64453125 127.95703125 C137.72814486 120.94941419 128.67777432 114.17919142 119.45703125 107.578125 C114.76001957 104.21402175 110.10478979 100.79499548 105.45703125 97.36328125 C104.67021973 96.78263916 103.8834082 96.20199707 103.07275391 95.60375977 C99.88068064 93.24705332 96.68988349 90.8886221 93.49902344 88.53027344 C84.93307202 82.20104536 76.3532798 75.89501267 67.70703125 69.67578125 C60.08661318 64.19049707 52.55911175 58.59166009 45.06494141 52.93554688 C41.82041844 50.4917532 38.56664311 48.06036388 35.31396484 45.62744141 C31.92651215 43.09145182 28.54402077 40.54890444 25.16259766 38.00488281 C23.75506939 36.94734274 22.34615031 35.8916478 20.93505859 34.83886719 C-5.78302851 14.90481263 -5.78302851 14.90481263 -7.60546875 4.42578125 C-6.65230493 0.374835 -3.62785351 0.04341576 0 0 Z " fill="#F2E2DE" transform="translate(244.10546875,605.69921875)"/>
<path d="M0 0 C5.54151119 3.73369631 10.80828645 7.79762812 16 12 C16.6295459 12.50853516 17.2590918 13.01707031 17.90771484 13.54101562 C44.11585044 34.90936861 44.11585044 34.90936861 45.80471802 47.82453918 C46.20750427 52.31161837 46.16311602 56.81056773 46.16796875 61.3125 C46.17296135 62.94227783 46.17296135 62.94227783 46.17805481 64.60498047 C46.18310463 66.90120015 46.18546374 69.19742712 46.18530273 71.49365234 C46.1874754 74.96073947 46.20561398 78.4275009 46.22460938 81.89453125 C46.29486246 109.08847373 42.2885323 128.36463672 25 150 C24.58105469 150.60972656 24.16210938 151.21945312 23.73046875 151.84765625 C20.6302427 153.91214086 17.506577 153.65624447 14 153 C10.28650072 151.53281163 6.89084586 149.61986471 3.4375 147.625 C2.47166992 147.08133789 1.50583984 146.53767578 0.51074219 145.97753906 C-11.33515762 139.22927622 -22.60810183 131.85752394 -33 123 C-33.83015625 122.30390625 -34.6603125 121.6078125 -35.515625 120.890625 C-41.77369747 115.47720035 -46.98773013 109.57331452 -52 103 C-52.59425781 102.23300781 -53.18851562 101.46601563 -53.80078125 100.67578125 C-66.49722274 83.4845076 -75.65776586 62.09064989 -79 41 C-79.12890625 40.28328125 -79.2578125 39.5665625 -79.390625 38.828125 C-81.52070718 25.2628648 -80.13754011 12.53669713 -72.25 1.0625 C-52.34696481 -24.20186939 -23.19755736 -14.79360605 0 0 Z " fill="#F1E2DD" transform="translate(488,370)"/>
<path d="M0 0 C0.78769775 -0.01772461 1.57539551 -0.03544922 2.38696289 -0.05371094 C8.2010392 -0.04643045 12.98614937 1.18408227 18.375 3.3125 C19.13683594 3.6125293 19.89867187 3.91255859 20.68359375 4.22167969 C33.31074265 9.35966419 46.6930974 18.33915392 52.62280273 31.03881836 C54.07229803 35.42023662 54.00437921 39.79947392 53.9375 44.375 C53.93234375 45.38054932 53.9271875 46.38609863 53.921875 47.42211914 C53.71053893 56.11957174 51.88937165 63.3675098 48.375 71.3125 C45.375 71.3125 45.375 71.3125 42.6875 68.8125 C32.86860683 60.06625902 18.67538577 55.47049713 6.375 51.3125 C5.68116211 51.07321777 4.98732422 50.83393555 4.27246094 50.58740234 C-24.47374788 40.82515336 -54.53047222 37.01025762 -84.625 34.3125 C-80.29235198 30.95623201 -75.62955504 28.33312483 -70.875 25.625 C-69.47241943 24.82533813 -69.47241943 24.82533813 -68.04150391 24.00952148 C-60.03700593 19.48146944 -51.92158436 15.27601302 -43.625 11.3125 C-42.63242187 10.83167969 -41.63984375 10.35085937 -40.6171875 9.85546875 C-27.4050945 3.62583516 -14.59258696 0.19778896 0 0 Z " fill="#F0E1DC" transform="translate(693.625,154.6875)"/>
<path d="M0 0 C1.147752 2.81349695 0.99461928 4.0170352 0.06298828 6.96655273 C-0.42959473 8.11067627 -0.92217773 9.2547998 -1.4296875 10.43359375 C-1.69536026 11.05940842 -1.96103302 11.68522308 -2.23475647 12.33000183 C-3.10409867 14.37062355 -3.98930361 16.40392989 -4.875 18.4375 C-5.47830003 19.84445876 -6.08058955 21.25185124 -6.68188477 22.65966797 C-7.88451895 25.4706106 -9.09338154 28.27873375 -10.30810547 31.08447266 C-11.7735672 34.47069018 -13.22118905 37.86414173 -14.66015625 41.26171875 C-17.63718583 48.27636776 -20.64531257 55.26205881 -23.8515625 62.17578125 C-27.13726553 69.265359 -30.30680931 76.40351032 -33.4375 83.5625 C-33.73446777 84.24130219 -34.03143555 84.92010437 -34.33740234 85.61947632 C-41.7797822 102.65404393 -48.95021523 119.79964753 -56 137 C-56.30997925 137.75573303 -56.6199585 138.51146606 -56.93933105 139.2901001 C-64.41294687 157.52799713 -71.51926243 175.79964029 -77.80908203 194.48535156 C-89.38502525 228.64838529 -89.38502525 228.64838529 -95.4375 243.0625 C-95.73084229 243.76238037 -96.02418457 244.46226074 -96.32641602 245.18334961 C-98.54990947 250.31112703 -101.2221747 255.15368567 -104 260 C-104.99 259.67 -105.98 259.34 -107 259 C-108.33479866 228.59625265 -101.12357734 196.18314075 -90 168 C-89.19136977 165.83692283 -88.38570086 163.67273764 -87.58203125 161.5078125 C-82.70180883 148.46742064 -77.76107784 135.51000267 -71.87353516 122.88232422 C-71.05951889 121.1282534 -70.26903498 119.36331483 -69.48046875 117.59765625 C-56.60852005 89.14902026 -41.10836178 61.77486085 -24.48730469 35.37792969 C-23.10070518 33.16100927 -21.73698604 30.93214488 -20.3828125 28.6953125 C-7.47883975 7.47883975 -7.47883975 7.47883975 0 0 Z " fill="#323232" transform="translate(369,256)"/>
<path d="M0 0 C9.1719894 -0.8781692 15.26992352 1.36316154 22.53515625 6.94921875 C31.14685695 14.36300127 40.77918341 24.24609338 45 35 C44.74560988 38.73670815 43.77708599 40.6704667 41.1875 43.3125 C37.00600442 47.96756255 33.84312121 52.71951586 33.5625 59.125 C34.15364839 64.36088575 35.61843931 67.68003755 39.453125 71.34375 C40.37609375 72.0553125 41.2990625 72.766875 42.25 73.5 C43.22582031 74.26957031 44.20164062 75.03914063 45.20703125 75.83203125 C46.12871094 76.54746094 47.05039062 77.26289063 48 78 C58.50256315 86.35212974 58.50256315 86.35212974 59.375 92.75 C59 95 59 95 57 97 C47.2949729 97.8531892 38.08124986 92.94225907 30.5625 87.125 C22.49872887 80.13375016 16.12021327 73.17640204 14.62109375 62.234375 C14.12865483 50.86062452 20.31809982 42.43259271 26 33 C20.4658882 24.21508126 13.50853394 17.29750371 5.99658203 10.19580078 C5.22427246 9.45185059 4.45196289 8.70790039 3.65625 7.94140625 C2.95306641 7.27826416 2.24988281 6.61512207 1.52539062 5.93188477 C0 4 0 4 0 0 Z " fill="#2C2C2B" transform="translate(442,379)"/>
<path d="M0 0 C3 1 3 1 4.3515625 3.1796875 C4.98191406 4.51386719 4.98191406 4.51386719 5.625 5.875 C6.26308594 7.20144531 6.26308594 7.20144531 6.9140625 8.5546875 C10.63507151 16.93365023 10.28345542 28.52307636 8.2109375 37.3671875 C7.28010083 39.7049376 6.27776629 41.83515136 5 44 C4.443125 44.94875 3.88625 45.8975 3.3125 46.875 C2.879375 47.57625 2.44625 48.2775 2 49 C1.63817424 50.32588499 1.30022164 51.65882296 1 53 C1.8353125 52.94779297 1.8353125 52.94779297 2.6875 52.89453125 C8.51345651 52.68786725 12.81469795 53.22215962 18 56 C19.25 58.875 19.25 58.875 19 62 C15.90615897 67.76579465 9.8326879 70.64317253 3.859375 72.7578125 C-10.95346887 76.43512689 -27.38160909 75.07875673 -40.66796875 67.47265625 C-45.68758007 63.981139 -45.68758007 63.981139 -46.6953125 60.81640625 C-46.79585937 60.21699219 -46.89640625 59.61757813 -47 59 C-43.62333679 56.05711468 -40.02303202 54.89020534 -35.8125 53.625 C-23.74801769 49.75763982 -14.87390207 43.95593667 -6.625 34.1875 C-0.92062467 22.9981484 -0.2578837 12.32684088 0 0 Z " fill="#2E2E2D" transform="translate(683,608)"/>
<path d="M0 0 C0.66 0 1.32 0 2 0 C2.46714646 10.10420486 1.15966905 19.19689395 -1 29 C-1.34224609 30.57974609 -1.34224609 30.57974609 -1.69140625 32.19140625 C-5.84041565 49.99658375 -13.03035852 71.16998381 -28.8515625 81.94140625 C-35.49797592 85.64244525 -41.41082936 87.12484893 -49 86 C-50 85 -50 85 -50.34375 82.7109375 C-49.86937512 78.96984474 -48.36145062 78.01241512 -45.5 75.625 C-44.58347656 74.8309375 -43.66695312 74.036875 -42.72265625 73.21875 C-40 71 -40 71 -37.87109375 69.53125 C-30.43106347 64.12031889 -27.53674022 55.41174048 -23.97363281 47.22900391 C-22.75700468 44.44369426 -21.4721375 41.69198347 -20.1875 38.9375 C-18.72842967 35.72360184 -17.42419124 32.49245073 -16.1875 29.1875 C-13.52451152 22.40604351 -9.70153353 16.24989701 -6 10 C-5.4121875 8.97132813 -4.824375 7.94265625 -4.21875 6.8828125 C-3.6928125 5.97273437 -3.166875 5.06265625 -2.625 4.125 C-2.16351562 3.32320312 -1.70203125 2.52140625 -1.2265625 1.6953125 C-0.82179688 1.13585937 -0.41703125 0.57640625 0 0 Z " fill="#2C2C2B" transform="translate(764,675)"/>
<path d="M0 0 C3.27664139 0.59903356 5.09112719 1.68296859 7.625 3.8125 C12.9317904 7.92256502 18.71307688 9.87877979 25.01171875 12.02734375 C25.99785156 12.36894531 26.98398437 12.71054687 28 13.0625 C29.36125 13.51302734 29.36125 13.51302734 30.75 13.97265625 C33 15 33 15 35 18 C35 20.4375 35 20.4375 34 23 C24.54763094 31.27082293 10.41349073 29.50482442 -1.32177734 28.87548828 C-14.23694254 28.01116356 -29.43665341 26.49012035 -39 17 C-39.0625 13.8125 -39.0625 13.8125 -38 11 C-34.41051451 8.60700967 -32.8193874 8.76029737 -28.5625 8.8125 C-27.31726563 8.82667969 -26.07203125 8.84085938 -24.7890625 8.85546875 C-20.36931412 9.02405709 -16.00902276 9.42883211 -11.62109375 9.9765625 C-8.52590389 10.00423931 -6.7034907 9.50295754 -4 8 C-2.56739174 6.09318531 -2.56739174 6.09318531 -1.6875 3.875 C-1.36136719 3.15054688 -1.03523437 2.42609375 -0.69921875 1.6796875 C-0.46847656 1.12539063 -0.23773437 0.57109375 0 0 Z " fill="#2E2E2E" transform="translate(626,620)"/>
<path d="M0 0 C3.68283228 0.16740147 5.59917968 0.67934375 8.5 3 C17.07174197 13.28609036 19.95771333 21.50080256 19 35 C17.24838881 44.77369604 10.72306602 53.91561989 3 60 C-0.23067302 61.93634933 -3.51947689 63.56367903 -7 65 C-8.32644531 65.55494141 -8.32644531 65.55494141 -9.6796875 66.12109375 C-14.18182877 67.31283703 -18.4266081 67.29069547 -23.0625 67.25 C-23.94744141 67.25773438 -24.83238281 67.26546875 -25.74414062 67.2734375 C-30.26070007 67.25988443 -33.90417154 67.14583944 -38 65 C-38 64.34 -38 63.68 -38 63 C-37.03320312 62.82984375 -36.06640625 62.6596875 -35.0703125 62.484375 C-19.44617319 59.94232898 -19.44617319 59.94232898 -7 51 C-1.43400287 41.72779805 1.3668304 33.1956325 1.25 22.4375 C1.26160156 21.36338867 1.26160156 21.36338867 1.2734375 20.26757812 C1.25615516 15.5192556 0.42802472 11.56407901 -1 7 C-1.1875 3.625 -1.1875 3.625 -1 1 C-0.67 0.67 -0.34 0.34 0 0 Z " fill="#2B2B2B" transform="translate(729,632)"/>
<path d="M0 0 C0.796875 2.1328125 0.796875 2.1328125 1 5 C-0.51382529 7.25843042 -1.87817535 8.95643355 -3.75 10.875 C-4.25007568 11.4002124 -4.75015137 11.9254248 -5.26538086 12.46655273 C-14.31597328 21.6645628 -24.45751531 26.85511393 -37.375 27.5625 C-45.33107446 27.35584872 -52.1756458 24.52512038 -58.046875 19.11328125 C-60.86367489 15.91420137 -62.82327408 13.3548987 -63.375 9.125 C-63 6 -63 6 -61.125 3.625 C-55.41295123 0.65473464 -50.46515663 1.22646008 -44.40234375 3.12890625 C-43.12055247 3.58074179 -41.84062371 4.03789178 -40.5625 4.5 C-29.58353454 8.43771943 -21.6036075 7.73345039 -11 3 C-9.88625 2.4225 -8.7725 1.845 -7.625 1.25 C-4.82715262 -0.08230828 -3.05732444 -0.26976392 0 0 Z " fill="#2D2D2C" transform="translate(725,710)"/>
<path d="M0 0 C4.01588343 0.52109214 5.98077663 1.50834582 8.875 4.3125 C14.98642283 10.20657097 20.2688285 12.50958857 28.5625 13.0625 C34.08517403 13.45802307 38.09623869 14.14140929 43 17 C43.375 19.6875 43.375 19.6875 43 23 C38.85589403 27.14410597 34.78167697 30.26627182 28.8125 30.375 C20.44324573 30.12844259 14.07576005 26.02558046 8.0859375 20.4140625 C2.95903226 14.48067778 -0.45821635 7.9189185 0 0 Z " fill="#2D2D2C" transform="translate(565,661)"/>
<path d="M0 0 C0.33 0 0.66 0 1 0 C0.73412379 3.25348521 0.46262108 6.50647877 0.18847656 9.75927734 C0.04913975 11.41579707 -0.0894132 13.07238277 -0.22753906 14.72900391 C-0.48248761 17.77788865 -0.74100951 20.82645615 -1 23.875 C-1.0829834 24.87345947 -1.1659668 25.87191895 -1.25146484 26.90063477 C-1.65737505 31.6435639 -2.11106651 36.31722536 -3 41 C-8.63587931 40.3440206 -13.60988342 38.43967159 -18.875 36.4375 C-19.75414062 36.10814453 -20.63328125 35.77878906 -21.5390625 35.43945312 C-23.69458053 34.63113386 -25.84809441 33.81787706 -28 33 C-28 30 -28 30 -26.58227539 28.2734375 C-25.92735107 27.64695312 -25.27242676 27.02046875 -24.59765625 26.375 C-23.87586182 25.67318604 -23.15406738 24.97137207 -22.41040039 24.24829102 C-21.63559326 23.50635498 -20.86078613 22.76441895 -20.0625 22 C-14.16740671 16.24676561 -8.63701488 10.50341438 -3.56640625 4.00390625 C-2 2 -2 2 0 0 Z " fill="#ECDCD7" transform="translate(310,560)"/>
<path d="M0 0 C-0.64704248 8.19587137 -4.45011003 14.95494898 -10.4375 20.4375 C-18.39369259 26.98189722 -25.00453863 28.19598944 -35 28 C-35.875 26 -35.875 26 -36 23 C-34.4016602 19.98021176 -32.27848627 17.53111161 -30 15 C-29.48824219 14.42121094 -28.97648438 13.84242188 -28.44921875 13.24609375 C-23.87852396 8.71742834 -18.42601428 5.90396797 -12.75 3 C-11.9569043 2.58951416 -11.16380859 2.17902832 -10.34667969 1.75610352 C-9.58774414 1.38283936 -8.82880859 1.0095752 -8.046875 0.625 C-7.36463867 0.28726563 -6.68240234 -0.05046875 -5.97949219 -0.3984375 C-3.61138008 -1.11810058 -2.30958275 -0.7952504 0 0 Z " fill="#2E2E2E" transform="translate(630,563)"/>
<path d="M0 0 C-4.47990895 10.38957607 -15.95515124 17.69666994 -26 22 C-28.76009977 22.64939819 -31.1351431 22.87583601 -34 23 C-36 21 -36 21 -36.125 18.4375 C-34.1243781 12.32448865 -30.05942392 7.60383897 -24.33984375 4.60546875 C-21.58124189 3.56953809 -18.85241515 2.73650092 -16 2 C-15.18917969 1.77699219 -14.37835937 1.55398438 -13.54296875 1.32421875 C-8.93651623 0.17064376 -4.73968248 -0.20168862 0 0 Z " fill="#313130" transform="translate(586,602)"/>
<path d="M0 0 C2.86805342 0.71786391 5.70968099 1.48026069 8.54296875 2.32421875 C8.87296875 3.64421875 9.20296875 4.96421875 9.54296875 6.32421875 C-7.96679688 12.33984375 -7.96679688 12.33984375 -15.45703125 11.32421875 C-17.1640625 10.015625 -17.1640625 10.015625 -18.45703125 8.32421875 C-18.83203125 4.76171875 -18.83203125 4.76171875 -18.45703125 1.32421875 C-13.02809746 -2.29507044 -6.21621859 -1.21514782 0 0 Z " fill="#2D2D2D" transform="translate(647.45703125,694.67578125)"/>
<path d="M0 0 C1.8871875 0.0309375 1.8871875 0.0309375 3.8125 0.0625 C2.8225 1.5475 2.8225 1.5475 1.8125 3.0625 C7.0925 3.3925 12.3725 3.7225 17.8125 4.0625 C17.8125 4.3925 17.8125 4.7225 17.8125 5.0625 C14.58340994 5.12084353 11.35445662 5.15621115 8.125 5.1875 C7.21298828 5.20425781 6.30097656 5.22101562 5.36132812 5.23828125 C0.74401773 5.27186169 -3.00682331 5.29806185 -7.1875 3.0625 C-7.1875 2.4025 -7.1875 1.7425 -7.1875 1.0625 C-4.43671116 0.14557039 -2.82801087 -0.04636083 0 0 Z " fill="#55514E" transform="translate(698.1875,693.9375)"/>
<path d="M0 0 C0.95178554 2.56982095 1.00609339 3.97088712 0.4375 6.6875 C-1 9 -1 9 -4.125 9.8125 C-5.07375 9.874375 -6.0225 9.93625 -7 10 C-2.85714286 2.42857143 -2.85714286 2.42857143 0 0 Z " fill="#3F3F3E" transform="translate(369,256)"/>
<path d="M0 0 C0.66 0.33 1.32 0.66 2 1 C0.92492371 2.29854721 -0.16043736 3.58858361 -1.25 4.875 C-1.85328125 5.59429687 -2.4565625 6.31359375 -3.078125 7.0546875 C-4.97087634 8.97052118 -6.53657727 9.96449045 -9 11 C-8.06558465 9.72689688 -7.12732889 8.456612 -6.1875 7.1875 C-5.66542969 6.47980469 -5.14335938 5.77210938 -4.60546875 5.04296875 C-3.16871123 3.21468607 -1.68184237 1.60103312 0 0 Z " fill="#DCD0CB" transform="translate(563,264)"/>
<path d="M0 0 C0.99 0.33 1.98 0.66 3 1 C3.33 1.99 3.66 2.98 4 4 C3.01 4 2.02 4 1 4 C1 6.97 1 9.94 1 13 C0.67 13 0.34 13 0 13 C0 8.71 0 4.42 0 0 Z " fill="#474444" transform="translate(683,608)"/>
<path d="M0 0 C-0.99 0.33 -1.98 0.66 -3 1 C-2.34 1.66 -1.68 2.32 -1 3 C-3.64 3 -6.28 3 -9 3 C-9 2.34 -9 1.68 -9 1 C-5.57367167 -0.61798838 -3.61944899 -1.34053666 0 0 Z " fill="#4F4E4C" transform="translate(457,249)"/>
<path d="M0 0 C0.99 0 1.98 0 3 0 C2.67 0.99 2.34 1.98 2 3 C0.68 2.67 -0.64 2.34 -2 2 C-1.34 1.34 -0.68 0.68 0 0 Z M-4 3 C-1.03 3.495 -1.03 3.495 2 4 C2 4.33 2 4.66 2 5 C-0.31 5 -2.62 5 -5 5 C-4.67 4.34 -4.34 3.68 -4 3 Z " fill="#3C3A39" transform="translate(458,246)"/>
<path d="M0 0 C3.65316671 1.24976756 4.78065836 1.67098753 7 5 C4.69 4.67 2.38 4.34 0 4 C0 2.68 0 1.36 0 0 Z " fill="#3F3C3B" transform="translate(387,784)"/>
<path d="M0 0 C0 3 0 3 -1.3125 4.38671875 C-2.875 5.59114583 -4.4375 6.79557292 -6 8 C-6.66 7.67 -7.32 7.34 -8 7 C-5.36 4.69 -2.72 2.38 0 0 Z " fill="#E7DBD6" transform="translate(508,320)"/>
<path d="M0 0 C0.99 0.33 1.98 0.66 3 1 C2.01 2.485 2.01 2.485 1 4 C-2.625 4.1875 -2.625 4.1875 -6 4 C-4.03617993 2.49440461 -2.21736634 1.10868317 0 0 Z " fill="#DDD1CA" transform="translate(615,185)"/>
<path d="M0 0 C0.66 0 1.32 0 2 0 C2.33 1.65 2.66 3.3 3 5 C1.02 5.99 1.02 5.99 -1 7 C-0.67 4.69 -0.34 2.38 0 0 Z " fill="#524E4D" transform="translate(573,414)"/>
</svg>
