<?xml version="1.0" encoding="iso-8859-1"?>
<!-- Uploaded to: SVG Repo, www.svgrepo.com, Generator: SVG Repo Mixer Tools -->
<!DOCTYPE svg PUBLIC "-//W3C//DTD SVG 1.1//EN" "http://www.w3.org/Graphics/SVG/1.1/DTD/svg11.dtd">
<svg fill="#000000" version="1.1" id="Capa_1" xmlns="http://www.w3.org/2000/svg" xmlns:xlink="http://www.w3.org/1999/xlink" 
	 width="800px" height="800px" viewBox="0 0 580.216 580.216"
	 xml:space="preserve">
<g>
	<g>
		<path d="M168.879,89.412c15.3-26.899,10.1-56.6-17.1-76.8c-26.9-20.2-63.3-10.1-72.5,22c-33.4-12.5-71,15.9-47.7,46.2
			c-20.8,14.1-34.9,40.7-30.9,65.8c3.4,22,22.3,25.7,37.3,16.2c-9.2,26.3,6.4,53.9,36.4,60.6c37.6,8.9,59.4-22,61.5-54.8
			c28.8,10.4,60.9,7.7,73.4-25.7C220.979,112.713,195.579,92.513,168.879,89.412z M195.879,136.213c-6.7,30.6-42.2,26-63.3,15
			c-4.9-2.4-11.3,0.6-11,6.399c0.6,26.9-10.7,55.7-42.5,50.5c-29.4-4.899-33-32.399-23.6-55.7c2.1-5.5-4.6-8-8.6-5.199
			c-1.8-1.2-4.3-1.801-6.1-0.9c-5.5,2.4-15,10.4-21.1,7.6c-6.1-2.399-4.9-14.399-4.6-19.3c1.2-19.6,14.7-37.3,32.1-45.6
			c4.3-2.101,4.9-8.601,1.5-11.601c-28.2-26,12.2-34.899,30.9-30.3c3.1,0.601,5.5-0.899,6.4-3.399c1.2-0.301,2.4-1.2,3.4-2.801
			c26.3-57.8,102.5,1.2,62.1,50.5c-3.4,4-1.8,12.2,4.9,11.601C178.079,101.013,201.679,110.213,195.879,136.213z"/>
		<path d="M264.079,274.513c16.2-23.9,14.1-52.9-11.6-71c-26.6-18.7-57.2-3.4-65.5,24.5c-7.7-4.3-17.4-5.8-23.9,1.2
			c-9.2,10.1-7.3,21.699-1.5,32.699c-15.6,12.9-28.5,33.7-24.2,53.9c5.2,25.1,31.2,22,47.7,9.5c-2.4,15,9.5,30,25.7,31.2
			c20.8,1.5,33-13.801,35.8-32.101c14.1,6.7,31.8,6.7,38.6-10.7C292.579,295.612,280.279,281.013,264.079,274.513z M275.679,306.712
			c-2.8,16.5-21.4,11-30.3,4c-3.7-2.8-9.8-1.5-9.8,4c0.3,15-5.2,30.301-22.3,30.601c-15.9,0.3-19.3-14.4-20.8-27.2
			c-0.3-2.1-3.1-3.4-4.3-1.2c-0.6,0.9-0.6,1.8-0.9,2.8c-0.6-1.8-2.4-3.399-4.9-2.1c-13.2,5.2-32.4,12.9-33-8.3
			c-0.3-16.2,11-31.5,23.9-40.4c2.8-1.8,4-5.5,2.1-8.6c-3.4-5.5-12.2-19.9-0.6-24.8c3.4-1.5,7.3-0.601,11,0.6
			c0.3,4.601,6.1,6.101,8.6,2.4c1.8-0.3,2.8-2.4,1.8-4c8.6-21.4,25.1-35.2,48.3-22.3c23.9,13.5,24.2,41.6,7,60.6
			c-2.8,3.1-1.8,8.3,2.4,9.2C264.979,285.513,278.179,292.912,275.679,306.712z"/>
		<path d="M151.779,452.312c18.7-9.5,32.1-27.8,18.4-49c-12.2-18.7-32.1-14.7-46.2-3.101c-2.1-17.699-14.1-31.8-34.9-32.699
			c-19.3-1.2-32.4,14.699-31.5,31.5c-4.3-0.301-8.3,0.899-12.2,4.3c-11.6,10.399-6.7,24.2,2.1,34.3c-15,14.4-25.4,36.4-9.2,54.5
			c16.8,19,47.7,14.1,60.6-7.3c0.3-0.601,0.6-0.9,0.6-1.5c3.7,17.1,28.2,24.5,45,17.1c9.8-4.3,19.6-13.5,20.5-24.8
			C165.879,465.212,159.479,457.812,151.779,452.312z M139.579,488.112c-6.1,3.1-12.9,4-19.3,1.8c-9.8-3.1-8.9-15-11.6-22.6
			c-0.9-2.8-5.5-4.3-7-0.9c-2.1,4.9-3.1,9.5-2.8,13.5c-1.2-2.399-4.3-3.7-6.7-2.1c-12.5,8-26.6,19.3-41,8.3
			c-16.5-12.9-3.1-33.4,9.2-42.8c3.1-2.101,4.9-7,1.2-10.101c-5.5-4.3-12.9-11.3-9.5-19c1.5-3.699,4.9-4.6,8.6-4.3
			c0.6,1.2,1.2,2.4,1.8,3.4c2.4,4,7.3,3.399,9.5,0.3c1.8,0.9,3.4,1.8,4.3,2.4c2.1,1.199,5.5-1.5,3.7-3.7c-2.1-2.8-4.6-5.5-7.7-7.7
			c-1.8-13.2,0.3-23.9,16.8-24.8c18.7-0.9,26.9,16.2,24.2,32.399c-0.9,6.101,6.1,9.5,9.8,4.301c9.5-13.2,27.2-22.9,38.6-6.101
			c11.6,17.7-9.5,31.2-24.2,35.5c-4.3,1.2-5.8,8-1.2,10.101c7,3.399,17.1,8.6,16.8,17.699
			C152.979,480.812,144.779,485.712,139.579,488.112z"/>
		<path d="M503.079,128.612c-9.2-8.3-20.8-5.2-31.2-0.3c9.8-26.9,0.3-55.7-27.2-70.7c-24.5-13.5-58.399,0.601-53.199,31.8
			c-31.2-3.399-56.601,29.4-30.301,48.301c-16.8,15-24.199,36.1-12.199,58.1c13.199,24.2,44.1,22.3,62.699,6.4
			c10.7,29.399,56.9,27.5,56.9,1.199c21.4,10.7,38.9-9.8,43.8-35.8C514.379,154.612,513.779,138.112,503.079,128.612z
			 M500.679,163.812c-1.5,17.1-18.399,50.2-36.399,25.7c-3.101-4.3-10.7-1.8-8.9,3.7c9.5,31.199-30,22.6-38.899,0.899l0,0
			c-0.301-0.899-0.9-1.8-0.9-2.8c-0.9-3.4-6.4-2.8-6.4,0.9l0,0c-17.399,9.8-37,18.699-50.8-1.5c-12.2-17.7-0.899-39.2,16.2-48
			c4-1.801,4-8.601,0-10.4c-28.8-14.1-3.1-35.2,17.4-36.1c1.8,0,2.8-1.2,3.1-2.4c1.8,0,4-0.9,4.6-3.1
			c3.7-10.101,4.301-21.101,15.9-25.7c9.8-3.7,20.8,0.899,28.8,5.8c24.5,15,25.7,44.7,11.9,67.3c-2.4,4,2.399,9.5,6.399,6.4
			c8.301-5.8,24.2-15.601,33.7-6.7C502.479,143.912,501.579,156.112,500.679,163.812z"/>
		<path d="M573.779,471.312c-7.3-11-22.3-17.4-37.3-19.3c40.399-41.301-35.5-127.9-72.2-79.9c-7.3-18.1-25.7-28.5-49.601-23.9
			c-28.5,5.5-47.699,33.4-29.399,56.9c-16.8,3.1-30.9,15.9-39.8,33.4c-1.5,3.1-0.601,6.699,2.1,8.3c4.3,2.8,8.3,4.899,12.2,7
			c-23.601,17.7-34.9,47.1-23,76.8c12.2,30,46.5,32.7,70.7,16.8c6.699,19,23,31.2,44.699,30.601c21.101-0.601,35.5-15.601,41.601-34
			c25.1,24.5,61.5,7.699,78.6-23.301C581.079,505.612,583.879,486.312,573.779,471.312z M561.479,514.112
			c-13.2,26.6-46.2,42.8-65.2,12.9c-3.7-5.5-11-2.801-11.601,3.1c-4.899,44.4-59.1,47.1-72.199,5.8c-1.2-4.3-6.7-3.1-7.301,0.601
			c-24.5,9.199-49.6,13.8-59.399-17.101c-8.3-26,8.6-52.3,32.1-62.399c4.9-2.101,3.7-10.4-1.5-11.301
			c-7-1.199-11.899-3.699-17.399-6.699c8.3-14.7,19.899-24.2,35.5-26.301c0.6,0,0.899,0,1.199,0c4.9-0.6,10.101-0.6,15.601,0.301
			c2.399,0.3,4.6-3.4,1.8-4.601c-4.6-1.8-8.9-3.1-13.2-3.7v-0.399c-11.899-20.5-10.7-36.4,15-42.8c23.9-6.4,42.2,9.199,37.9,33.699
			c-1.5,9.2,11.3,13.2,14.1,4c9.2-30.6,31.5-34.899,52.601-11.899c19,20.8,19,47.399-1.801,65.2c-2.8,0.3-5.5,1.199-8,1.8
			c-4,1.5-4.899,8,0,8.899c17.4,3.7,39.801-1.5,52.601,14.7C570.979,488.412,567.079,503.412,561.479,514.112z"/>
	</g>
</g>
</svg>