<?xml version="1.0" encoding="iso-8859-1"?>
<!-- Uploaded to: SVG Repo, www.svgrepo.com, Generator: SVG Repo Mixer Tools -->
<!DOCTYPE svg PUBLIC "-//W3C//DTD SVG 1.1//EN" "http://www.w3.org/Graphics/SVG/1.1/DTD/svg11.dtd">
<svg fill="#000000" version="1.1" id="Capa_1" xmlns="http://www.w3.org/2000/svg" xmlns:xlink="http://www.w3.org/1999/xlink" 
	 width="800px" height="800px" viewBox="0 0 191.24 191.24"
	 xml:space="preserve">
<g>
	<g>
		<path d="M187.73,72.974c-10.206-22.912-38.698-35.418-60.963-42.698c-26.177-8.559-52.411-10.368-78.61-0.883
			C17.565,40.468-4.881,68.375,0.916,101.84c2.219,12.811,10.696,24.089,23.116,25.653c0.238,0.594,0.671,1.122,1.349,1.385
			c8.183,3.173,12.463-4.979,13.879-13.476c1.404,7.458,4.942,14.681,9.414,20.246c10.574,13.16,25.35,16.973,41.702,15.503
			c8.731-0.785,17.96-4.374,26.719-3.159c8.088,1.122,8.164,11.58,8.494,17.758c0.073,1.378,1.061,2.391,2.45,2.449
			c13.003,0.558,33.174-20.362,22.783-32.415c15.381-6.67,30.36-15.079,37.176-31.318C192.386,94.009,192.342,83.326,187.73,72.974z
			 M184.87,95.821c-4.131,19.427-22.387,28.872-39.097,35.948c-1.77,0.749-1.812,2.444-0.979,3.699
			c-0.062,0.598,0.135,1.243,0.735,1.832c8.97,8.803-4.918,24.039-15.195,25.826c-0.451-6.841-1.507-13.955-7.46-18.158
			c-3.451-2.437-8.495-2.193-12.442-1.843c-7.588,0.674-15.018,2.704-22.629,3.394c-17.737,1.604-32.133-6.102-40.277-21.858
			c-3.446-6.668-4.852-14.496-3.434-21.867c1.326-6.893,5.905-15.312,14.013-10.415c1.689,1.02,3.015-1.461,1.508-2.58
			c-0.23-0.17-0.454-0.309-0.681-0.464c0.391-0.274,0.638-0.739,0.475-1.326C56.299,76.814,73.5,75.174,79.038,81.87
			c1.385,1.675,4.274,0.292,4.202-1.741c-0.418-11.944,12.13-14.562,20.935-9.484c1.742,1.004,3.617-0.307,3.765-2.16
			c0.704-8.884,11.619-8.663,18.08-7.221c3.084,0.689,4.353-3.834,1.306-4.736c-1.603-0.474-3.29-0.783-4.997-0.948
			c0.853-0.474,1.667-1.009,2.426-1.609c3.739-2.953,7.5-7.102,8.937-11.742c0.85-2.745-1.784-4.516-4.153-3.857
			c-1.561,0.434-1.812,1.976-1.146,3.075c-0.316,0.733-0.686,1.439-1.153,2.092c-1.363,2.196-3.217,4.074-5.097,5.823
			c-5.004,4.655-15.206,5.02-18.566-1.368c-1.412-2.685-5.44-0.794-4.757,2.006c2.305,9.46-9.302,13.626-15.235,7.781
			c-0.466-0.69-1.001-1.38-1.68-2.064c-2.019-2.034-5.647,0.634-4.021,3.102c0.417,0.634,0.874,1.205,1.347,1.743
			c4.715,7.889-17.36,17.408-23.662,6.645c-1.533-2.617-5.103-0.77-4.632,1.953c1.849,10.688-8.165,25.788-19.578,18.194
			c-0.437-0.291-0.86-0.233-1.174,0c-0.157-0.152-0.305-0.319-0.465-0.466c-1.973-1.805-5.439-1.83-5.294,1.463
			c0.026,0.596,0.745,1.17,1.311,0.753c2.492-1.838,8.686,14.021,9.119,15.453c1.555,5.141,0.107,15.139-4.787,18.646
			c-16.941-1.657-23.767-15.023-24.419-31.026c-0.705-17.305,7.844-32.701,20.64-43.851c22.083-19.244,53.67-22.837,81.33-17.182
			c24.334,4.975,50.855,15.168,67.93,33.897C183.27,73.509,187.288,84.446,184.87,95.821z"/>
		<path d="M109.951,35.11c-2.43-1.112-4.857-1.559-7.144-1.4c0.207-0.653,0.399-1.323,0.575-2.023
			c0.196-0.785-0.885-1.251-1.303-0.55c-0.933,1.562-1.9,2.635-2.9,3.385c-0.774,0.303-1.517,0.691-2.225,1.152
			c-4.094,1.27-8.708-1.189-13.88,0.418c-6.069,1.886-16.173,19.293-22.361,8.019c-1.136-2.069-3.758-0.86-4.008,1.086
			c-0.876,6.822-11.757,11.568-17.713,10.857c-1.266-0.151-2.031,1.104-2.157,2.157c-0.698,5.831-8.81,8.934-13.804,7.854
			c-1.392-0.301-3.034,1.261-2.032,2.644c1.742,2.403,4.269,2.947,6.95,2.356c-0.232,0.891-0.365,1.85-0.352,2.9
			c0.016,1.331,1.763,1.44,2.201,0.298c2.702-7.048,9.475-8.815,16.182-6.537c1.058,0.359,2.246-0.402,2.526-1.434
			c2.797-10.295,14.425-14.43,24.183-12.933c1.01,0.155,2.36-0.241,2.548-1.447c1.269-8.121,10.618-11.68,17.482-7.625
			c0.951,0.562,2.378,0.266,2.901-0.761c0.8-1.573,1.82-2.858,3-3.804c0.34-0.203,0.662-0.422,0.955-0.663
			c2.335-1.416,5.176-1.616,8.192-0.217C110.284,40.011,112.479,36.267,109.951,35.11z M40.488,60.458
			c0.038,0.001,0.078-0.004,0.117-0.004c-0.265,0.5-0.441,1.083-0.537,1.686c-0.092,0.281-0.169,0.565-0.242,0.85
			c-0.278,0.02-0.557,0.03-0.833,0.061C39.612,62.181,40.116,61.306,40.488,60.458z"/>
		<path d="M161.621,82.297c-0.904-5.613-5.666-6.105-11.27-4.383c2.895-3.561,4.348-8,3.147-12.769
			c-0.653-2.597-4.221-1.827-4.424,0.599c-0.922,10.994-20.008,24.906-25.666,9.663c-1.042-2.807-4.919-1.698-4.44,1.224
			c1.38,8.409-9.435,14.922-15.034,7.168c-1.256-1.737-4.111-1.228-4.153,1.125c-0.138,7.799-9.238,11.915-14.37,5.057
			c-1.44-1.924-4.643-0.866-4.013,1.692c2.232,9.066-10.554,10.783-16.388,7.853c-1.546-0.777-2.771,1.338-1.348,2.306
			c2.694,1.835,6.069,2.632,9.373,2.516c-1.434,1.142-2.83,2.353-4.179,3.591c-0.988,0.907,0.035,2.699,1.322,2.27
			c8.523-2.839,14.637-11.79,24.462-6.782c1.615,0.823,3.55-0.186,3.593-2.062c0.178-7.766,10.062-5.424,14.197-2.703
			c1.646,1.083,3.52-0.379,3.646-2.092c0.628-8.477,9.303-6.684,13.652-2.375c0.863,0.855,2.64,1.057,3.469,0
			c0.551-0.703,1.315-1.525,2.231-2.4c0.722-0.224,1.299-0.778,1.583-1.431c6.092-5.222,16.357-11.125,21.014-5.973
			C159.613,86.146,161.934,84.234,161.621,82.297z M134.084,86.804c-0.437-0.213-0.874-0.428-1.312-0.639
			c0.763,0.006,1.529-0.017,2.302-0.1C134.731,86.314,134.403,86.561,134.084,86.804z"/>
		<path d="M172.517,104.149c-10.078-10.011-29.585-4.021-35.688,7.957c-8.579-2.944-20.104-0.631-22.971,8.162
			c-9.316-3.827-23.043-3.493-23.191,9.178c-0.027,2.326,3.235,2.175,3.509,0c1.287-10.208,14.317-7.397,20.267-3.311
			c1.757,1.206,3.554-0.471,3.777-2.168c1.146-8.693,12.59-9.227,18.696-5.83c1.604,0.891,3.521,0.069,4.065-1.654
			c3.161-10.015,19.438-15.479,27.517-8.316C171.219,110.579,175.137,106.752,172.517,104.149z"/>
	</g>
</g>
</svg>