<?xml version="1.0" encoding="iso-8859-1"?>
<!-- Uploaded to: SVG Repo, www.svgrepo.com, Generator: SVG Repo Mixer Tools -->
<!DOCTYPE svg PUBLIC "-//W3C//DTD SVG 1.1//EN" "http://www.w3.org/Graphics/SVG/1.1/DTD/svg11.dtd">
<svg fill="#000000" version="1.1" id="Capa_1" xmlns="http://www.w3.org/2000/svg" xmlns:xlink="http://www.w3.org/1999/xlink" 
	 width="800px" height="800px" viewBox="0 0 187.466 187.467"
	 xml:space="preserve">
<g>
	<g>
		<path d="M161.963,159.253c3.279-6.349,3.112-13.035-6.704-15.381c3.535-8.517,4.381-19.98-5.491-19.604
			c11.059-40.139-9.267-90.423-55.441-91.702c-46.819-1.296-62.828,56.852-53.286,94.49c-1.844-0.071-3.688-0.135-5.532-0.229
			c-0.968-0.045-2.163,0.585-2.584,1.481c-4.799,10.215-4.088,17.894-0.072,23.663c-14.09,1.143-13.756,12.477-5.677,21.892
			c8.888,10.357,26.223,12.903,42.467,13.407c0.176,0.047,0.343,0.129,0.521,0.168c0.323,0.07,0.646,0.011,0.93-0.13
			c8.538,0.204,16.7-0.104,23.061-0.103c22.491,0.004,41.486-3.566,59.206-17.655c2.395-1.904,4.847-4.503,6.793-7.323
			c1.462,0.762,2.654-1.201,2.105-2.498C162.186,159.559,162.05,159.418,161.963,159.253z M143.439,149.2
			c-1.781,1.792-4.088,3.212-6.631,4.414c0.972-3.385,1.708-6.842,2.419-10.282c0.672-3.256,2.497-8.678,1.287-11.95
			c-0.055-0.149-0.137-0.262-0.209-0.389c0.466-0.233,0.955-0.434,1.414-0.677c1.036,1.86,4.208,2.327,5.769,0.413
			C157.426,133.09,146.324,146.298,143.439,149.2z M90.539,39.434c44.812-4.732,62.354,48.035,52.434,83.963
			c-9.218,2.439-17.914,5.142-26.938,7.171c-0.061-0.982-0.129-1.963-0.165-2.929c-0.178-4.833-0.225-9.721-0.675-14.547
			c13.946-0.465,20.434-14.615,16.736-28.796c-5.198-19.939-32.714-28.073-50.568-24.687c-27.62,5.24-32.198,53.308-2.478,53.218
			c-0.719,6.903-0.99,13.787-0.958,20.705c-10.684-0.611-21.326-2.177-31.838-4.109C43.433,94.843,46.171,44.12,90.539,39.434z
			 M136,133.016c-0.562,2.656-0.362,5.896-0.631,8.397c-0.491,4.583-1.228,9.124-2.043,13.656c-4.387,1.61-9.163,2.702-13.407,3.659
			c0.207-7.037,1.399-14.035,1.411-21.005C126.427,136.522,131.359,134.988,136,133.016z M116.324,159.55
			c-0.002,0-0.004,0.001-0.005,0.001c-5.454,1.291-11.05,1.995-16.676,2.354c0.154-2.909,0.246-5.822,0.351-8.732
			c0.143-3.964,0.861-8.273-0.204-12.132c-0.035-0.13-0.103-0.232-0.16-0.342c4.13-0.227,8.211-0.68,12.244-1.265
			c0.929,0.468,2.056,0.326,2.846-0.424c0.566-0.097,1.148-0.149,1.713-0.255c-0.654,2.349-0.512,5.123-0.613,7.322
			C115.613,150.526,115.526,155.132,116.324,159.55z M109.033,112.485c0.619,0.139,1.201,0.197,1.799,0.289
			c-0.431,4.513-0.477,9.074-0.656,13.597c-0.07,1.761-0.267,3.608-0.33,5.447c-1.895,0.345-3.819,0.64-5.763,0.904
			c-1.983-12.001-1.382-23.124,2.218-34.02c5.462,1.383,12.282,1.427,13.421-5.351c0.496-2.953-2.926-4.334-4.696-1.98
			c-1.511,2.01-3.955,2.473-6.775,2.166c1.195-2.825,2.529-5.644,4.162-8.463c1.165-2.011-1.792-3.669-3.073-1.797
			c-2.097,3.062-3.846,6.193-5.288,9.378c-4.945-1.422-10.212-3.949-13.506-4.43c-2.282-0.334-4.363-0.222-6.233,0.252
			c-0.17-0.327-0.323-0.665-0.501-0.988c-1.067-1.937-3.739-0.545-3.376,1.424c0.073,0.397,0.169,0.794,0.248,1.191
			c-3.324,2.142-5.554,5.824-6.294,10.654c-0.297,1.938,2.178,2.614,2.915,0.804c1.259-3.095,2.8-5.124,4.541-6.414
			c2.049,7.892,5.048,15.728,7.791,23.261c1.725,4.735,3.38,10.688,6.542,15.045c-4.586,0.294-9.173,0.408-13.755,0.269
			c0.378-7.806,1.067-15.518,2.702-23.268c0.37-1.757-0.841-4.012-2.907-3.817c-21.574,2.027-20.786-23.453-9.656-35.15
			c10.066-10.581,27.557-6.294,39.011-1.025c16.59,7.631,23.791,37.572-1.756,36.254
			C106.502,106.542,105.803,111.764,109.033,112.485z M81.792,142.537c0.181-0.287,0.319-0.617,0.332-1.041
			c0.009-0.282,0.023-0.561,0.032-0.842c4.79,0.26,9.617,0.345,14.427,0.18c-0.029,0.071-0.074,0.128-0.097,0.206
			c-0.93,3.369-0.39,6.965-0.265,10.426c0.127,3.527,0.226,7.062,0.423,10.588c-4.513,0.193-9.032,0.2-13.502,0.119
			c-0.628-0.011-1.255-0.041-1.882-0.06c-0.134-3.284-0.762-6.707-0.72-9.871C80.58,149.238,81.549,145.756,81.792,142.537z
			 M92.886,112.457c-2.108-6.235-3.798-12.905-6.316-19.103c4.649-0.448,10.1,1.924,15.598,4.001
			c-3.981,11.378-4.101,23.408-0.861,35.708c-0.345,0.038-0.681,0.093-1.028,0.127C97.87,126.284,95.236,119.408,92.886,112.457z
			 M76.46,152.244c0.036,2.704-0.039,6.454,0.698,9.685c-4.624-0.276-9.226-0.801-13.778-1.606c-0.373-3.527-0.699-7.056-0.839-10.6
			c-0.148-3.761,0.839-7.43,0.915-11.104c4.567,0.729,9.235,1.34,13.998,1.726C75.957,143.786,76.421,149.282,76.46,152.244z
			 M60.509,159.734c-3.173-0.654-6.325-1.41-9.425-2.396c-1.54-0.489-3.108-1.231-4.636-2.133c0.321-3.991,0.614-7.948,1.241-11.908
			c0.383-2.416,1.308-4.977,1.774-7.496c3.435,0.839,6.956,1.623,10.622,2.279C57.431,144.249,59.312,153.255,60.509,159.734z
			 M42.361,131.054c0.082,0.092,0.161,0.188,0.254,0.267c-0.212,1.544,0.739,3.398,2.389,3.367c0.117,0.032,0.244,0.059,0.361,0.09
			c-0.567,2.105-0.721,4.419-0.979,6.456c-0.505,3.998-0.843,8.026-0.755,12.057C35.454,147.014,30.283,136.169,42.361,131.054z
			 M35.936,173.088c-4.975-2.983-8.58-8.41-7.36-13.053c2.75,4.975,6.232,10.145,10.25,14.556
			C37.839,174.139,36.87,173.647,35.936,173.088z M46.607,177.17c-2.467-2.396-5.144-4.638-7.49-7.091
			c-3.596-3.761-6.802-7.798-9.567-12.171c0.62-0.941,1.505-1.816,2.665-2.604c5.436,7.369,10.869,15.803,17.618,22.44
			C48.756,177.559,47.671,177.413,46.607,177.17z M56.596,178.66c-8.356-7.516-15.695-15.483-23.064-24.134
			c0.168-0.087,0.312-0.183,0.49-0.267c0.167-0.079,0.287-0.193,0.384-0.321c1.806,2.017,4.092,3.738,6.659,5.259
			c-0.142,0.3-0.128,0.671,0.171,0.985c4.892,5.147,9.464,10.585,14.362,15.728c0.859,0.901,1.77,1.91,2.718,2.937
			C57.75,178.797,57.168,178.716,56.596,178.66z M74.361,180.076c-3.081-3.243-6.675-6.232-10.037-8.977
			c-1.151-0.938-5.101-3.867-6.044-1.104c-0.229,0.671,0.752,1.027,1.105,0.466c0.153-0.244,6.118,5.689,6.694,6.303
			c0.864,0.921,1.738,1.916,2.629,2.912c-1.669-0.127-3.341-0.245-5.005-0.384c-2.2-1.576-4.375-3.197-6.397-5.088
			c-4.431-4.144-8.42-8.759-12.649-13.12c5.788,2.7,12.702,4.486,19.743,5.654c0.001,0.001,0.001,0.003,0.003,0.004
			c4.082,4.17,8.113,8.445,12.538,12.256c0.501,0.431,1.037,0.873,1.589,1.312C77.138,180.235,75.749,180.166,74.361,180.076z
			 M87.268,180.665c-1.212-0.46-2.45-0.854-3.639-1.43c-2.363-1.146-4.473-2.846-6.488-4.5c-2.847-2.336-5.46-4.928-8.237-7.335
			c3.927,0.51,7.816,0.835,11.518,1.04c3.397,3.086,6.771,6.197,10.301,9.135c1.218,1.013,2.496,2.108,3.838,3.127
			C92.132,180.727,89.702,180.721,87.268,180.665z M102.007,180.479c-2.906-2.515-6.698-4.384-9.688-6.713
			c-2.102-1.638-4.141-3.356-6.166-5.094c2.991,0.071,5.771,0.066,8.21,0.011c0.161-0.004,0.338-0.011,0.5-0.015
			c3.114,3.988,6.379,8.018,10.062,11.645C103.953,180.37,102.978,180.434,102.007,180.479z M110.647,179.875
			c-0.031-0.022-0.066-0.037-0.097-0.06c-2.197-1.538-4.157-3.467-6.086-5.319c-2.057-1.976-4.073-3.99-6.143-5.94
			c3.27-0.132,6.784-0.354,10.404-0.714c3.018,3.215,5.986,6.47,9.293,9.398c0.496,0.438,1.029,0.903,1.579,1.368
			C116.646,179.169,113.655,179.585,110.647,179.875z M124.968,177.389c-2.159-1.194-4.346-2.323-6.337-3.994
			c-2.229-1.869-4.31-3.908-6.386-5.948c2.679-0.331,5.391-0.755,8.087-1.274c2.008,2.166,3.982,4.36,6.209,6.308
			c1.202,1.052,2.677,2.208,4.263,2.952C128.892,176.183,126.95,176.848,124.968,177.389z M138.787,171.439
			c-1.034,0.657-2.091,1.259-3.162,1.82c-0.129-0.152-0.289-0.291-0.488-0.409c-2.481-1.468-4.916-2.269-7.189-4.186
			c-1.249-1.053-2.422-2.196-3.581-3.354c1.907-0.449,3.777-0.982,5.623-1.558c0.008,0.007,0.017,0.014,0.024,0.021
			c1.342,1.153,2.735,2.26,4.095,3.394c1.597,1.332,3.115,2.861,4.723,4.245C138.817,171.421,138.799,171.432,138.787,171.439z
			 M142.286,169.192c-1.972-1.952-4.56-3.517-6.693-5.042c-0.669-0.478-1.422-1.024-2.207-1.537
			c2.772-1.023,5.414-2.226,7.874-3.616c1.538,1.058,3.106,2.068,4.722,3.013c1.117,0.653,2.314,1.411,3.56,1.83
			C147.147,165.879,144.492,167.74,142.286,169.192z M152.262,161.29c-1.698-0.944-3.505-1.634-5.258-2.514
			c-0.968-0.484-1.907-1.025-2.851-1.561c1.622-1.101,3.132-2.309,4.51-3.631c1.618,0.824,3.205,1.703,4.726,2.723
			c0.593,0.398,1.137,0.842,1.66,1.307C154.369,158.843,153.422,160.08,152.262,161.29z M155.943,153.733
			c-1.563-1.039-3.249-1.883-4.968-2.653c0.524-0.638,1.037-1.286,1.503-1.972c0.13,0.109,0.219,0.238,0.376,0.334
			c2.107,1.286,3.036,2.774,3.184,4.355C156.007,153.776,155.973,153.754,155.943,153.733z"/>
		<path d="M29.525,112.505c-3.146-0.564-6.183-0.75-9.382-0.734c-1.437,0.007-2.861,0.047-4.297-0.031
			c-0.395-0.03-0.788-0.078-1.178-0.146c-0.504-0.074-0.737-0.121-0.829-0.121c-1.261-1.461-3.642-0.875-3.915,1.364
			c-1.01,8.266,16.165,3.154,19.601,2.454C30.891,115.012,30.926,112.757,29.525,112.505z"/>
		<path d="M30.999,98.735c-6.293-2.659-12.968-4.459-19.53-6.442c0.054-0.048,0.12-0.095,0.169-0.144
			c1.872-1.901-0.487-4.682-2.747-3.561c-2.352,1.167-3.95,1.662-4.675,4.416c-0.37,1.406,0.45,3.007,1.908,3.362
			c7.809,1.896,15.714,4.041,23.66,5.256C31.389,101.867,32.786,99.491,30.999,98.735z"/>
		<path d="M31.823,74.727c-4.509-2.251-11.772-2.214-13.348-8.106c-0.51-1.908-3.845-2.196-4.145,0
			c-0.507,3.713,1.527,6.03,4.758,7.591c3.437,1.66,8.333,3.053,12.176,2.581C32.242,76.673,32.922,75.276,31.823,74.727z"/>
		<path d="M37.317,54.24c-4.685-2.899-8.527-5.532-10.252-10.999c-0.636-2.015-3.843-2.28-4.34,0
			c-1.534,7.034,7.922,12.991,13.846,13.752C38.119,57.193,38.458,54.947,37.317,54.24z"/>
		<path d="M47.987,36.958c-2.09-6.094-6.213-10.776-5.796-17.532c0.156-2.528-3.321-3.173-4.537-1.229
			c-4.018,6.421,3.187,15.221,6.804,20.249C45.654,40.109,48.746,39.171,47.987,36.958z"/>
		<path d="M65.163,14.591c-0.11-2.227,0.239-5.074-1.072-6.976c-1.004-1.456-3.113-1.594-4.089,0
			c-1.264,2.065-0.37,4.726-0.069,6.976c0.382,2.856,0.612,5.744,1.167,8.572c0.387,1.972,3.667,2.019,4.016,0
			C65.604,20.336,65.304,17.44,65.163,14.591z"/>
		<path d="M86.269,5.626c-0.072-1.586-1.558-2.241-2.906-1.667c-2.114,0.9-2.824,3.71-3.315,5.761
			c-0.625,2.612-0.578,5.558,0.386,8.074c0.696,1.817,3.774,1.736,3.629-0.491c-0.144-2.204-0.186-4.214,0.39-6.369
			C84.942,9.1,86.357,7.566,86.269,5.626z"/>
		<path d="M111.307,0.159c-2.489,1.05-3.149,3.296-3.791,5.751c-0.778,2.975-1.381,6.19-1.165,9.27c0.219,3.136,4.464,3.044,4.803,0
			c0.27-2.423,0.857-4.82,1.555-7.152c0.453-1.517,1.332-4.112,1.513-4.956C114.551,1.521,113.107-0.6,111.307,0.159z"/>
		<path d="M141.124,9.023c-3.118-0.735-5.131,2.162-6.317,4.638c-1.572,3.282-2.178,7.015-1.687,10.608
			c0.302,2.198,3.958,2.115,4.341,0c0.486-2.701,0.896-5.32,2.171-7.788c1.003-1.942,2.766-3.271,2.947-5.548
			C142.646,10.088,141.927,9.212,141.124,9.023z"/>
		<path d="M156.583,28.377c-0.134-0.711-0.871-1.449-1.583-1.583c-3.026-0.572-5.223,2.832-6.994,4.809
			c-1.721,1.919-3.404,3.826-4.974,5.871c-1.257,1.638,1.234,4.129,2.872,2.872c1.92-1.473,3.717-3.042,5.519-4.657
			C153.458,33.86,157.174,31.507,156.583,28.377z"/>
		<path d="M168.196,38.372c-3.193,0.059-5.781,2.911-7.81,5.123c-2.384,2.598-4.254,5.609-5.911,8.704
			c-1.454,2.716,2.383,4.899,4.089,2.39c1.591-2.34,3.227-4.646,5.145-6.732c1.931-2.099,5.143-3.525,6.46-6.048
			C170.946,40.317,169.999,38.338,168.196,38.372z"/>
		<path d="M174.106,63.945c-5.028-1.088-11.284,3.234-15.512,5.594c-2.531,1.412-0.312,4.923,2.221,3.799
			c2.283-1.013,4.574-1.976,6.923-2.828c2.255-0.817,4.965-0.99,6.91-2.422C176.089,67.027,176.215,64.401,174.106,63.945z"/>
		<path d="M176.3,91.285c-3.171-1.253-8.025-0.44-11.422-0.554c-2.993-0.101-5.905-0.298-8.811,0.302
			c-1.657,0.342-1.589,2.885,0,3.271c2.882,0.7,5.816,1.052,8.811,1.363c3.31,0.345,8.237,1.711,11.422,0.508
			C178.734,95.255,178.677,92.223,176.3,91.285z"/>
		<path d="M182.163,111.795c-3.21-2.093-8.82-1.072-12.537-1.221c-3.976-0.158-8.101-0.97-12.045-0.631
			c-1.907,0.164-2.376,2.301-0.924,3.411c2.779,2.126,7.004,2.117,10.367,2.556c4.216,0.548,11.348,2.494,15.138,0.09
			C183.749,114.994,183.716,112.808,182.163,111.795z"/>
	</g>
</g>
</svg>