<svg xmlns="http://www.w3.org/2000/svg" fill="none" viewBox="0 0 24 24"><path fill="#000" d="M4.074 2.994c.059-1.03.305-1.478 1.01-1.838.76-.387 1.957-.207 3.366.507.607.307.669.313 1.733.177 1.413-.181 3.233-.18 4.538.002.987.138 1.052.13 1.66-.177 2-1.013 3.58-.947 4.151.174.286.56.339 2.01.117 3.208-.122.664-.11.747.186 1.182 2.08 3.065.581 8.033-2.982 9.887a6 6 0 0 1-.69.3c-.575.22-.75.287-.538 1.298.102.486.224 1.695.272 2.686.087 1.792.086 1.805-.228 2.17-.428.498-1.045.506-1.462.02-.273-.317-.3-.466-.3-1.689 0-1.806-.197-3.006-.665-4.035-.557-1.224-.144-1.681 1.128-1.955 1.768-.38 3.15-1.471 3.92-3.096.731-1.545.841-3.68-.482-4.978-.376-.447-.402-.853-.134-2.074.1-.456.185-1.045.188-1.309.003-.416-.035-.479-.29-.479-.162 0-.78.236-1.373.523l-.947.459a.5.5 0 0 1-.277.047 30.3 30.3 0 0 0-7.114 0 .5.5 0 0 1-.279-.046l-.946-.46c-.593-.287-1.211-.523-1.373-.523-.374 0-.38.276-.039 1.916.209 1.001.349 1.224-.253 2.025-.902 1.2-1.127 2.69-.643 4.256.609 1.973 2.101 3.305 4.2 3.75 1.265.268 1.595.618 1.112 2.069-.38 1.14-.62 1.435-1.173 1.435-.743 0-1.209-.644-.953-1.318.113-.297.08-.329-.617-.582-2.126-.776-3.752-2.513-4.495-4.804-.575-1.77-.322-4.075.6-5.467.314-.475.318-.515.172-1.423a10.3 10.3 0 0 1-.1-1.838M3.332 15.945a1 1 0 0 0-1.664 1.11c.226.34.497.618.726.848l.124.123c.193.19.363.36.533.56.378.443.754 1.04.968 2.11.096.477.438.734.628.846.206.121.431.193.616.24.379.095.839.145 1.275.174.479.032.998.042 1.462.045a1 1 0 0 0 2 0v-1a1 1 0 0 0-1-1h-.304c-.587.002-1.352.004-2.026-.04a7 7 0 0 1-.788-.09c-.301-1.184-.788-1.972-1.308-2.582-.23-.27-.468-.506-.662-.698l-.103-.103c-.224-.223-.37-.382-.477-.543"/></svg>